<svg width="1039" height="908" viewBox="0 0 1039 908" fill="none" xmlns="http://www.w3.org/2000/svg">
    <g filter="url(#filter0_d_242_1822)">
    <g clip-path="url(#clip0_242_1822)">
    <rect x="193.703" y="14" width="956.178" height="585.659" rx="7.47014" fill="white"/>
    <rect x="193.703" y="53.5923" width="956.178" height="546.067" fill="white"/>
    <g filter="url(#filter1_di_242_1822)">
    <path d="M193.703 21.4701C193.703 17.3445 197.047 14 201.173 14H1142.41C1146.54 14 1149.88 17.3445 1149.88 21.4701V53.5917H193.703V21.4701Z" fill="white"/>
    <g clip-path="url(#clip1_242_1822)">
    <path d="M1036.71 39.7524C1040.17 39.7524 1043.03 36.8814 1043.03 33.4276C1043.03 29.9676 1040.16 27.1028 1036.7 27.1028C1033.25 27.1028 1030.38 29.9676 1030.38 33.4276C1030.38 36.8814 1033.25 39.7524 1036.71 39.7524ZM1036.71 38.6983C1033.78 38.6983 1031.44 36.3544 1031.44 33.4276C1031.44 30.5008 1033.77 28.1569 1036.7 28.1569C1039.63 28.1569 1041.97 30.5008 1041.98 33.4276C1041.98 36.3544 1039.63 38.6983 1036.71 38.6983ZM1036.71 30.2714C1036.44 30.2714 1036.24 30.4636 1036.24 30.7365V33.8368L1036.29 35.1452L1035.67 34.4011L1034.93 33.657C1034.85 33.5764 1034.73 33.5206 1034.6 33.5206C1034.35 33.5206 1034.16 33.719 1034.16 33.9671C1034.16 34.0973 1034.19 34.2089 1034.28 34.2895L1036.35 36.3544C1036.47 36.4784 1036.58 36.528 1036.71 36.528C1036.84 36.528 1036.95 36.4722 1037.07 36.3544L1039.14 34.2895C1039.22 34.2089 1039.27 34.0973 1039.27 33.9671C1039.27 33.719 1039.07 33.5206 1038.81 33.5206C1038.68 33.5206 1038.57 33.5702 1038.49 33.657L1037.75 34.4011L1037.12 35.1514L1037.17 33.8368V30.7365C1037.17 30.4636 1036.98 30.2714 1036.71 30.2714Z" fill="#737373"/>
    </g>
    <g clip-path="url(#clip2_242_1822)">
    <path d="M308.192 38.6432L303.275 33.8437C303.157 33.7259 303.095 33.5833 303.095 33.4283C303.095 33.2671 303.163 33.112 303.281 33.0128L308.192 28.2072C308.298 28.1018 308.434 28.0398 308.595 28.0398C308.918 28.0398 309.16 28.2878 309.16 28.6103C309.16 28.7591 309.098 28.9079 308.998 29.0133L304.484 33.4283L308.998 37.8433C309.098 37.9487 309.16 38.0913 309.16 38.2463C309.16 38.5687 308.918 38.8106 308.595 38.8106C308.434 38.8106 308.298 38.7486 308.192 38.6432Z" fill="#737373"/>
    <path d="M328.312 38.8168C328.474 38.8168 328.61 38.7548 328.715 38.6494L333.633 33.8437C333.75 33.7259 333.812 33.5833 333.812 33.4283C333.812 33.2671 333.75 33.1182 333.633 33.0128L328.722 28.2134C328.61 28.1018 328.474 28.0398 328.312 28.0398C327.99 28.0398 327.748 28.2878 327.748 28.6103C327.748 28.7591 327.81 28.9079 327.909 29.0133L332.423 33.4283L327.909 37.8433C327.81 37.9487 327.748 38.0913 327.748 38.2463C327.748 38.5687 327.99 38.8168 328.312 38.8168Z" fill="#BFBFBF"/>
    </g>
    <path d="M269.39 39.1452H280.117C281.419 39.1452 282.064 38.5003 282.064 37.2229V29.6517C282.064 28.3744 281.419 27.7295 280.117 27.7295H269.39C268.094 27.7295 267.443 28.3682 267.443 29.6517V37.2229C267.443 38.5065 268.094 39.1452 269.39 39.1452ZM269.402 38.1468C268.782 38.1468 268.441 37.8182 268.441 37.1733V29.7013C268.441 29.0565 268.782 28.7278 269.402 28.7278H272.168V38.1468H269.402ZM280.105 28.7278C280.719 28.7278 281.066 29.0565 281.066 29.7013V37.1733C281.066 37.8182 280.719 38.1468 280.105 38.1468H273.141V28.7278H280.105ZM270.971 31.0283C271.163 31.0283 271.325 30.8609 271.325 30.6811C271.325 30.495 271.163 30.3338 270.971 30.3338H269.644C269.458 30.3338 269.291 30.495 269.291 30.6811C269.291 30.8609 269.458 31.0283 269.644 31.0283H270.971ZM270.971 32.6343C271.163 32.6343 271.325 32.4669 271.325 32.2809C271.325 32.0949 271.163 31.9398 270.971 31.9398H269.644C269.458 31.9398 269.291 32.0949 269.291 32.2809C269.291 32.4669 269.458 32.6343 269.644 32.6343H270.971ZM270.971 34.2341C271.163 34.2341 271.325 34.0791 271.325 33.8931C271.325 33.7071 271.163 33.5458 270.971 33.5458H269.644C269.458 33.5458 269.291 33.7071 269.291 33.8931C269.291 34.0791 269.458 34.2341 269.644 34.2341H270.971Z" fill="#737373"/>
    <g filter="url(#filter2_i_242_1822)">
    <path fill-rule="evenodd" clip-rule="evenodd" d="M213.871 37.9048C216.347 37.9048 218.353 35.8981 218.353 33.4228C218.353 30.9474 216.347 28.9407 213.871 28.9407C211.396 28.9407 209.389 30.9474 209.389 33.4228C209.389 35.8981 211.396 37.9048 213.871 37.9048Z" fill="#EE6A5F"/>
    </g>
    <path d="M218.167 33.4228C218.167 35.795 216.243 37.7181 213.871 37.7181C211.499 37.7181 209.576 35.795 209.576 33.4228C209.576 31.0505 211.499 29.1274 213.871 29.1274C216.243 29.1274 218.167 31.0505 218.167 33.4228Z" stroke="#CE5347" stroke-width="0.373507"/>
    <g filter="url(#filter3_i_242_1822)">
    <path fill-rule="evenodd" clip-rule="evenodd" d="M228.812 37.9051C231.287 37.9051 233.294 35.8984 233.294 33.423C233.294 30.9476 231.287 28.9409 228.812 28.9409C226.336 28.9409 224.33 30.9476 224.33 33.423C224.33 35.8984 226.336 37.9051 228.812 37.9051Z" fill="#F5BD4F"/>
    </g>
    <path d="M233.107 33.423C233.107 35.7952 231.184 37.7183 228.812 37.7183C226.439 37.7183 224.516 35.7952 224.516 33.423C224.516 31.0508 226.439 29.1277 228.812 29.1277C231.184 29.1277 233.107 31.0508 233.107 33.423Z" stroke="#D6A243" stroke-width="0.373507"/>
    <g filter="url(#filter4_i_242_1822)">
    <path fill-rule="evenodd" clip-rule="evenodd" d="M243.752 37.9051C246.227 37.9051 248.234 35.8984 248.234 33.423C248.234 30.9476 246.227 28.9409 243.752 28.9409C241.277 28.9409 239.27 30.9476 239.27 33.423C239.27 35.8984 241.277 37.9051 243.752 37.9051Z" fill="#61C454"/>
    </g>
    <path d="M248.047 33.423C248.047 35.7952 246.124 37.7183 243.752 37.7183C241.38 37.7183 239.457 35.7952 239.457 33.423C239.457 31.0508 241.38 29.1277 243.752 29.1277C246.124 29.1277 248.047 31.0508 248.047 33.423Z" stroke="#58A942" stroke-width="0.373507"/>
    <g clip-path="url(#clip3_242_1822)">
    <path d="M460.014 39.8579C460.113 39.8579 460.274 39.8207 460.429 39.7339C463.957 37.7558 465.167 36.9187 465.167 34.6554V29.9118C465.167 29.2607 464.888 29.0561 464.36 28.8329C463.629 28.529 461.266 27.6795 460.535 27.4253C460.367 27.3695 460.187 27.3323 460.014 27.3323C459.84 27.3323 459.66 27.3819 459.499 27.4253C458.767 27.6361 456.399 28.5352 455.667 28.8329C455.146 29.0499 454.861 29.2607 454.861 29.9118V34.6554C454.861 36.9187 456.076 37.7496 459.598 39.7339C459.759 39.8207 459.914 39.8579 460.014 39.8579ZM460.262 28.3864C461.198 28.7585 463.015 29.4157 463.976 29.7444C464.143 29.8064 464.181 29.8932 464.181 30.104V34.426C464.181 36.342 463.263 36.8443 460.398 38.5867C460.218 38.6983 460.119 38.7293 460.02 38.7355V28.3306C460.082 28.3306 460.163 28.3492 460.262 28.3864Z" fill="#737373"/>
    <rect x="479.062" y="22.9646" width="385.459" height="20.9164" rx="4.48208" fill="black" fill-opacity="0.05"/>
    <g clip-path="url(#clip4_242_1822)">
    <path d="M631.468 37.6927H635.635C636.199 37.6927 636.475 37.4125 636.475 36.7998V33.587C636.475 33.0355 636.248 32.751 635.779 32.7029V31.5998C635.779 29.9497 634.698 29.1531 633.551 29.1531C632.405 29.1531 631.323 29.9497 631.323 31.5998V32.7247C630.894 32.7904 630.627 33.0705 630.627 33.587V36.7998C630.627 37.4125 630.903 37.6927 631.468 37.6927ZM632.028 31.5079C632.028 30.4093 632.733 29.8271 633.551 29.8271C634.37 29.8271 635.075 30.4093 635.075 31.5079V32.6985L632.028 32.7029V31.5079Z" fill="#9E9E9E"/>
    <path d="M641.725 36.4229V31.3112H642.55V32.0889H642.626C642.854 31.5388 643.337 31.2211 644.006 31.2211C644.698 31.2211 645.182 31.5862 645.419 32.1173H645.495C645.77 31.5767 646.353 31.2211 647.06 31.2211C648.103 31.2211 648.686 31.8186 648.686 32.8902V36.4229H647.861V33.0799C647.861 32.3259 647.515 31.9513 646.794 31.9513C646.083 31.9513 645.613 32.4872 645.613 33.1368V36.4229H644.788V32.9519C644.788 32.3449 644.371 31.9513 643.726 31.9513C643.058 31.9513 642.55 32.5346 642.55 33.2553V36.4229H641.725ZM652.237 36.5129C650.781 36.5129 649.88 35.5077 649.88 33.8718V33.8623C649.88 32.2216 650.781 31.2211 652.237 31.2211C653.693 31.2211 654.593 32.2216 654.593 33.8623V33.8718C654.593 35.5077 653.693 36.5129 652.237 36.5129ZM652.237 35.7827C653.204 35.7827 653.749 35.0762 653.749 33.8718V33.8623C653.749 32.6531 653.204 31.9513 652.237 31.9513C651.27 31.9513 650.724 32.6531 650.724 33.8623V33.8718C650.724 35.0762 651.27 35.7827 652.237 35.7827ZM655.574 36.4229V35.8254L658.524 32.0699V31.994H655.579V31.3112H659.496V31.9229L656.56 35.6642V35.74H659.51V36.4229H655.574ZM660.889 36.4229V31.3112H661.714V32.0889H661.79C662.017 31.5388 662.501 31.2211 663.17 31.2211C663.862 31.2211 664.346 31.5862 664.583 32.1173H664.658C664.934 31.5767 665.517 31.2211 666.223 31.2211C667.266 31.2211 667.85 31.8186 667.85 32.8902V36.4229H667.025V33.0799C667.025 32.3259 666.678 31.9513 665.958 31.9513C665.246 31.9513 664.777 32.4872 664.777 33.1368V36.4229H663.952V32.9519C663.952 32.3449 663.535 31.9513 662.89 31.9513C662.221 31.9513 661.714 32.5346 661.714 33.2553V36.4229H660.889ZM671.386 36.5129C669.926 36.5129 669.044 35.4887 669.044 33.886V33.8813C669.044 32.3022 669.945 31.2211 671.334 31.2211C672.723 31.2211 673.567 32.2548 673.567 33.7817V34.1041H669.888C669.911 35.1615 670.495 35.778 671.405 35.778C672.097 35.778 672.524 35.4508 672.662 35.1426L672.681 35.0999H673.506L673.496 35.1378C673.321 35.8301 672.591 36.5129 671.386 36.5129ZM671.329 31.9561C670.571 31.9561 669.992 32.4729 669.902 33.445H672.728C672.643 32.435 672.083 31.9561 671.329 31.9561ZM676.696 36.5129C675.402 36.5129 674.553 35.465 674.553 33.8718V33.8623C674.553 32.2596 675.397 31.2211 676.696 31.2211C677.398 31.2211 678.01 31.572 678.289 32.1173H678.365V29.2817H679.19V36.4229H678.365V35.6073H678.289C677.976 36.1763 677.407 36.5129 676.696 36.5129ZM676.886 35.7827C677.815 35.7827 678.384 35.0525 678.384 33.8718V33.8623C678.384 32.6816 677.815 31.9513 676.886 31.9513C675.952 31.9513 675.397 32.6721 675.397 33.8623V33.8718C675.397 35.062 675.952 35.7827 676.886 35.7827ZM681.171 38.2152C681.062 38.2152 680.92 38.2058 680.806 38.1868V37.5087C680.906 37.5277 681.034 37.5324 681.148 37.5324C681.617 37.5324 681.902 37.319 682.087 36.7311L682.181 36.4276L680.289 31.3112H681.171L682.575 35.5172H682.651L684.05 31.3112H684.917L682.921 36.7358C682.499 37.8833 682.077 38.2152 681.171 38.2152ZM687.183 36.5129C686.211 36.5129 685.476 35.925 685.476 34.9956V34.9861C685.476 34.0757 686.149 33.5493 687.34 33.4782L688.805 33.3881V32.9234C688.805 32.2928 688.421 31.9513 687.657 31.9513C687.046 31.9513 686.643 32.179 686.51 32.5773L686.505 32.5915H685.68L685.685 32.563C685.817 31.7617 686.595 31.2211 687.686 31.2211C688.933 31.2211 689.63 31.8613 689.63 32.9234V36.4229H688.805V35.6689H688.729C688.406 36.2142 687.871 36.5129 687.183 36.5129ZM686.32 34.9766C686.32 35.4935 686.761 35.7969 687.354 35.7969C688.193 35.7969 688.805 35.2469 688.805 34.5167V34.052L687.439 34.1373C686.661 34.1847 686.32 34.4598 686.32 34.9671V34.9766ZM691.772 36.4703C691.436 36.4703 691.156 36.1905 691.156 35.8538C691.156 35.5124 691.436 35.2374 691.772 35.2374C692.114 35.2374 692.389 35.5124 692.389 35.8538C692.389 36.1905 692.114 36.4703 691.772 36.4703ZM695.845 36.5129C694.412 36.5129 693.497 35.4745 693.497 33.8528V33.8433C693.497 32.2548 694.408 31.2211 695.84 31.2211C697.082 31.2211 697.827 31.9371 697.978 32.8475L697.983 32.876H697.163L697.158 32.8618C697.03 32.3591 696.575 31.9513 695.84 31.9513C694.92 31.9513 694.341 32.6911 694.341 33.8433V33.8528C694.341 35.0288 694.929 35.7827 695.84 35.7827C696.527 35.7827 696.964 35.4792 697.153 34.9102L697.163 34.8818L697.978 34.877L697.969 34.9292C697.76 35.8538 697.073 36.5129 695.845 36.5129ZM701.249 36.5129C699.794 36.5129 698.893 35.5077 698.893 33.8718V33.8623C698.893 32.2216 699.794 31.2211 701.249 31.2211C702.705 31.2211 703.606 32.2216 703.606 33.8623V33.8718C703.606 35.5077 702.705 36.5129 701.249 36.5129ZM701.249 35.7827C702.217 35.7827 702.762 35.0762 702.762 33.8718V33.8623C702.762 32.6531 702.217 31.9513 701.249 31.9513C700.282 31.9513 699.737 32.6531 699.737 33.8623V33.8718C699.737 35.0762 700.282 35.7827 701.249 35.7827ZM704.847 36.4229V31.3112H705.672V32.0889H705.748C705.976 31.5388 706.46 31.2211 707.128 31.2211C707.82 31.2211 708.304 31.5862 708.541 32.1173H708.617C708.892 31.5767 709.475 31.2211 710.182 31.2211C711.225 31.2211 711.808 31.8186 711.808 32.8902V36.4229H710.983V33.0799C710.983 32.3259 710.637 31.9513 709.916 31.9513C709.205 31.9513 708.736 32.4872 708.736 33.1368V36.4229H707.911V32.9519C707.911 32.3449 707.493 31.9513 706.848 31.9513C706.18 31.9513 705.672 32.5346 705.672 33.2553V36.4229H704.847Z" fill="#4C4C4C"/>
    </g>
    <path d="M855.768 33.1349C855.878 33.1349 855.961 33.0998 856.022 33.0342L857.826 31.2221C857.904 31.1477 857.935 31.0601 857.935 30.9595C857.935 30.8632 857.896 30.7669 857.826 30.6969L856.022 28.8673C855.961 28.7972 855.873 28.7622 855.768 28.7622C855.571 28.7622 855.423 28.9198 855.423 29.1211C855.423 29.213 855.458 29.3006 855.519 29.3706L856.688 30.5174C856.438 30.4736 856.184 30.4474 855.93 30.4474C853.786 30.4474 852.061 32.1675 852.061 34.3123C852.061 36.4614 853.786 38.186 855.93 38.186C858.075 38.186 859.795 36.4614 859.795 34.3123C859.795 34.1022 859.646 33.949 859.432 33.949C859.226 33.949 859.091 34.1022 859.091 34.3123C859.091 36.0719 857.686 37.4813 855.93 37.4813C854.175 37.4813 852.766 36.0719 852.766 34.3123C852.766 32.5571 854.175 31.1521 855.93 31.1521C856.263 31.1521 856.569 31.1783 856.832 31.2352L855.523 32.5352C855.458 32.6052 855.423 32.6928 855.423 32.7847C855.423 32.986 855.571 33.1349 855.768 33.1349Z" fill="#797979"/>
    </g>
    </g>
    </g>
    </g>
    <g filter="url(#filter5_d_242_1822)">
    <path d="M97.9149 230.92C97.9149 210.898 114.146 194.667 134.168 194.667H302.736C322.758 194.667 338.989 210.898 338.989 230.92V304.113C340.762 304.113 342.199 305.551 342.199 307.324V347.016C342.199 348.789 340.762 350.227 338.989 350.227V653.404C338.989 673.426 322.758 689.657 302.736 689.657H134.168C114.146 689.657 97.9149 673.426 97.9149 653.404V370.949C96.3132 370.949 94.9963 369.65 94.9963 368.048V334.74C94.9963 333.138 96.3132 331.84 97.9149 331.84V324.543C96.3132 324.543 94.9963 323.245 94.9963 321.643V287.167C94.9963 285.566 96.3132 284.267 97.9149 284.267V230.92Z" fill="#F5F7FA"/>
    </g>
    <path d="M154.535 205.174H127.684C117.368 205.174 109.005 213.537 109.005 223.853V660.471C109.005 670.787 117.368 679.15 127.684 679.15H309.219C319.535 679.15 327.898 670.787 327.898 660.471V223.853C327.898 213.537 319.535 205.174 309.219 205.174H282.952V208.092C282.952 214.54 277.725 219.767 271.278 219.767H166.209C159.762 219.767 154.535 214.54 154.535 208.092V205.174Z" fill="white"/>
    <rect opacity="0.4" x="195.979" y="205.174" width="50.1994" height="4.66971" rx="2.33486" fill="#CCCCCC"/>
    <rect opacity="0.5" x="254.35" y="202.255" width="10.5069" height="10.5069" rx="5.25343" fill="#DDDDDD"/>
    <rect opacity="0.5" x="256.685" y="204.59" width="5.83714" height="5.83714" rx="2.91857" fill="white"/>
    <rect opacity="0.5" x="167.96" y="205.174" width="4.66971" height="4.66971" rx="2.33486" fill="#CCCCCC"/>
    <defs>
    <filter id="filter0_d_242_1822" x="155.616" y="0.970325" width="1032.35" height="661.832" filterUnits="userSpaceOnUse" color-interpolation-filters="sRGB">
    <feFlood flood-opacity="0" result="BackgroundImageFix"/>
    <feColorMatrix in="SourceAlpha" type="matrix" values="0 0 0 0 0 0 0 0 0 0 0 0 0 0 0 0 0 0 127 0" result="hardAlpha"/>
    <feMorphology radius="12.0274" operator="erode" in="SourceAlpha" result="effect1_dropShadow_242_1822"/>
    <feOffset dy="25.0571"/>
    <feGaussianBlur stdDeviation="25.0571"/>
    <feColorMatrix type="matrix" values="0 0 0 0 0 0 0 0 0 0 0 0 0 0 0 0 0 0 0.25 0"/>
    <feBlend mode="normal" in2="BackgroundImageFix" result="effect1_dropShadow_242_1822"/>
    <feBlend mode="normal" in="SourceGraphic" in2="effect1_dropShadow_242_1822" result="shape"/>
    </filter>
    <filter id="filter1_di_242_1822" x="193.703" y="14" width="956.178" height="39.9653" filterUnits="userSpaceOnUse" color-interpolation-filters="sRGB">
    <feFlood flood-opacity="0" result="BackgroundImageFix"/>
    <feColorMatrix in="SourceAlpha" type="matrix" values="0 0 0 0 0 0 0 0 0 0 0 0 0 0 0 0 0 0 127 0" result="hardAlpha"/>
    <feOffset dy="0.373507"/>
    <feColorMatrix type="matrix" values="0 0 0 0 0 0 0 0 0 0 0 0 0 0 0 0 0 0 0.15 0"/>
    <feBlend mode="normal" in2="BackgroundImageFix" result="effect1_dropShadow_242_1822"/>
    <feBlend mode="normal" in="SourceGraphic" in2="effect1_dropShadow_242_1822" result="shape"/>
    <feColorMatrix in="SourceAlpha" type="matrix" values="0 0 0 0 0 0 0 0 0 0 0 0 0 0 0 0 0 0 127 0" result="hardAlpha"/>
    <feOffset dy="-0.373507"/>
    <feComposite in2="hardAlpha" operator="arithmetic" k2="-1" k3="1"/>
    <feColorMatrix type="matrix" values="0 0 0 0 0 0 0 0 0 0 0 0 0 0 0 0 0 0 0.05 0"/>
    <feBlend mode="normal" in2="shape" result="effect2_innerShadow_242_1822"/>
    </filter>
    <filter id="filter2_i_242_1822" x="209.389" y="28.9407" width="8.96436" height="8.96411" filterUnits="userSpaceOnUse" color-interpolation-filters="sRGB">
    <feFlood flood-opacity="0" result="BackgroundImageFix"/>
    <feBlend mode="normal" in="SourceGraphic" in2="BackgroundImageFix" result="shape"/>
    <feColorMatrix in="SourceAlpha" type="matrix" values="0 0 0 0 0 0 0 0 0 0 0 0 0 0 0 0 0 0 127 0" result="hardAlpha"/>
    <feOffset/>
    <feGaussianBlur stdDeviation="2.24104"/>
    <feComposite in2="hardAlpha" operator="arithmetic" k2="-1" k3="1"/>
    <feColorMatrix type="matrix" values="0 0 0 0 0.92549 0 0 0 0 0.427451 0 0 0 0 0.384314 0 0 0 1 0"/>
    <feBlend mode="normal" in2="shape" result="effect1_innerShadow_242_1822"/>
    </filter>
    <filter id="filter3_i_242_1822" x="224.33" y="28.9409" width="8.96436" height="8.96411" filterUnits="userSpaceOnUse" color-interpolation-filters="sRGB">
    <feFlood flood-opacity="0" result="BackgroundImageFix"/>
    <feBlend mode="normal" in="SourceGraphic" in2="BackgroundImageFix" result="shape"/>
    <feColorMatrix in="SourceAlpha" type="matrix" values="0 0 0 0 0 0 0 0 0 0 0 0 0 0 0 0 0 0 127 0" result="hardAlpha"/>
    <feOffset/>
    <feGaussianBlur stdDeviation="2.24104"/>
    <feComposite in2="hardAlpha" operator="arithmetic" k2="-1" k3="1"/>
    <feColorMatrix type="matrix" values="0 0 0 0 0.960784 0 0 0 0 0.768627 0 0 0 0 0.317647 0 0 0 1 0"/>
    <feBlend mode="normal" in2="shape" result="effect1_innerShadow_242_1822"/>
    </filter>
    <filter id="filter4_i_242_1822" x="239.27" y="28.9409" width="8.96436" height="8.96411" filterUnits="userSpaceOnUse" color-interpolation-filters="sRGB">
    <feFlood flood-opacity="0" result="BackgroundImageFix"/>
    <feBlend mode="normal" in="SourceGraphic" in2="BackgroundImageFix" result="shape"/>
    <feColorMatrix in="SourceAlpha" type="matrix" values="0 0 0 0 0 0 0 0 0 0 0 0 0 0 0 0 0 0 127 0" result="hardAlpha"/>
    <feOffset/>
    <feGaussianBlur stdDeviation="2.24104"/>
    <feComposite in2="hardAlpha" operator="arithmetic" k2="-1" k3="1"/>
    <feColorMatrix type="matrix" values="0 0 0 0 0.407843 0 0 0 0 0.8 0 0 0 0 0.345098 0 0 0 1 0"/>
    <feBlend mode="normal" in2="shape" result="effect1_innerShadow_242_1822"/>
    </filter>
    <filter id="filter5_d_242_1822" x="0.739143" y="122.161" width="537.225" height="785.012" filterUnits="userSpaceOnUse" color-interpolation-filters="sRGB">
    <feFlood flood-opacity="0" result="BackgroundImageFix"/>
    <feColorMatrix in="SourceAlpha" type="matrix" values="0 0 0 0 0 0 0 0 0 0 0 0 0 0 0 0 0 0 127 0" result="hardAlpha"/>
    <feOffset dx="50.7539" dy="72.5055"/>
    <feGaussianBlur stdDeviation="72.5055"/>
    <feColorMatrix type="matrix" values="0 0 0 0 0.0196078 0 0 0 0 0.258824 0 0 0 0 0.623529 0 0 0 0.16 0"/>
    <feBlend mode="normal" in2="BackgroundImageFix" result="effect1_dropShadow_242_1822"/>
    <feBlend mode="normal" in="SourceGraphic" in2="effect1_dropShadow_242_1822" result="shape"/>
    </filter>
    <clipPath id="clip0_242_1822">
    <rect x="193.703" y="14" width="956.178" height="585.659" rx="7.47014" fill="white"/>
    </clipPath>
    <clipPath id="clip1_242_1822">
    <rect width="116.534" height="20.9164" fill="white" transform="translate(1024.38 22.9646)"/>
    </clipPath>
    <clipPath id="clip2_242_1822">
    <rect width="49.3029" height="20.9164" fill="white" transform="translate(293.802 22.9646)"/>
    </clipPath>
    <clipPath id="clip3_242_1822">
    <rect width="448.208" height="20.9164" fill="white" transform="translate(447.687 22.9646)"/>
    </clipPath>
    <clipPath id="clip4_242_1822">
    <rect x="630.627" y="27.4229" width="82.3298" height="12" fill="white"/>
    </clipPath>
    </defs>
    </svg>
    