<svg width="1920" height="901" viewBox="0 0 1920 901" fill="none" xmlns="http://www.w3.org/2000/svg">
<path d="M2175.18 1158.71H2233.09V1100.8M2175.18 1158.71V1100.8M2175.18 1158.71H2117.27M2233.09 1100.8H2175.18M2233.09 1100.8V1042.89M2175.18 1100.8V1042.89M2175.18 1100.8H2117.27M2117.27 1158.71V1100.8M2117.27 1158.71H2059.35M2233.09 1042.89H2175.18M2233.09 1042.89V984.974M2175.18 1042.89V984.974M2175.18 1042.89H2117.27M2117.27 1100.8V1042.89M2117.27 1100.8H2059.35M2059.35 1158.71V1100.8M2059.35 1158.71H2001.44M2175.18 984.974H2233.09M2175.18 984.974V927.061M2175.18 984.974H2117.27M2117.27 1042.89V984.974M2117.27 1042.89H2059.35M2059.35 1100.8V1042.89M2059.35 1100.8H2001.44M2233.09 984.974V927.061M2175.18 927.061H2233.09M2175.18 927.061V869.148M2175.18 927.061H2117.27M2117.27 984.974V927.061M2117.27 984.974H2059.35M2059.35 1042.89V984.974M2059.35 1042.89H2001.44M2233.09 927.061V869.148M2175.18 869.148H2233.09M2175.18 869.148V811.235M2175.18 869.148H2117.27M2117.27 927.061V869.148M2117.27 927.061H2059.35M2059.35 984.974V927.061M2059.35 984.974H2001.44M2233.09 869.148V811.235M2175.18 811.235H2233.09M2175.18 811.235V753.321M2175.18 811.235H2117.27M2117.27 869.148V811.235M2117.27 869.148H2059.35M2059.35 927.061V869.148M2059.35 927.061H2001.44M2233.09 811.235V753.321M2175.18 753.321H2233.09M2175.18 753.321V695.408M2175.18 753.321H2117.27M2117.27 811.235V753.321M2117.27 811.235H2059.35M2059.35 869.148V811.235M2059.35 869.148H2001.44M2233.09 753.321V695.408M2175.18 695.408H2233.09M2175.18 695.408V637.495M2175.18 695.408H2117.27M2117.27 753.321V695.408M2117.27 753.321H2059.35M2059.35 811.235V753.321M2059.35 811.235H2001.44M2233.09 695.408V637.495M2175.18 637.495H2233.09M2175.18 637.495V579.581M2175.18 637.495H2117.27M2117.27 695.408V637.495M2117.27 695.408H2059.35M2059.35 753.321V695.408M2059.35 753.321H2001.44M2233.09 637.495V579.581M2175.18 579.581H2233.09M2175.18 579.581V521.668M2175.18 579.581H2117.27M2117.27 637.495V579.581M2117.27 637.495H2059.35M2059.35 695.408V637.495M2059.35 695.408H2001.44M2233.09 579.581V521.668M2175.18 521.668H2233.09M2175.18 521.668V463.755M2175.18 521.668H2117.27M2117.27 579.581V521.668M2117.27 579.581H2059.35M2059.35 637.495V579.581M2059.35 637.495H2001.44M2233.09 521.668V463.755M2175.18 463.755H2233.09M2175.18 463.755V405.841M2175.18 463.755H2117.27M2117.27 521.668V463.755M2117.27 521.668H2059.35M2059.35 579.581V521.668M2059.35 579.581H2001.44M2233.09 463.755V405.841M2175.18 405.841H2233.09M2175.18 405.841V347.928M2175.18 405.841H2117.27M2117.27 463.755V405.841M2117.27 463.755H2059.35M2059.35 521.668V463.755M2059.35 521.668H2001.44M2233.09 405.841V347.928M2175.18 347.928H2233.09M2175.18 347.928V290.015M2175.18 347.928H2117.27M2117.27 405.841V347.928M2117.27 405.841H2059.35M2059.35 463.755V405.841M2059.35 463.755H2001.44M2233.09 347.928V290.015M2175.18 290.015H2233.09M2175.18 290.015V232.101M2175.18 290.015H2117.27M2117.27 347.928V290.015M2117.27 347.928H2059.35M2059.35 405.841V347.928M2059.35 405.841H2001.44M2233.09 290.015V232.101M2175.18 232.101H2233.09M2175.18 232.101V174.188M2175.18 232.101H2117.27M2117.27 290.015V232.101M2117.27 290.015H2059.35M2059.35 347.928V290.015M2059.35 347.928H2001.44M2233.09 232.101V174.188M2175.18 174.188H2233.09M2175.18 174.188V116.275M2175.18 174.188H2117.27M2117.27 232.101V174.188M2117.27 232.101H2059.35M2059.35 290.015V232.101M2059.35 290.015H2001.44M2233.09 174.188V116.275M2175.18 116.275H2233.09M2175.18 116.275V58.3613M2175.18 116.275H2117.27M2117.27 174.188V116.275M2117.27 174.188H2059.35M2059.35 232.101V174.188M2059.35 232.101H2001.44M2233.09 116.275V58.3613M2175.18 58.3613H2233.09M2175.18 58.3613V0.447998M2175.18 58.3613H2117.27M2117.27 116.275V58.3613M2117.27 116.275H2059.35M2059.35 174.188V116.275M2059.35 174.188H2001.44M2233.09 58.3613V0.447998H2175.18M2175.18 0.447998L2117.27 0.448013M2117.27 58.3613V0.448013M2117.27 58.3613H2059.35M2059.35 116.275V58.3613M2059.35 116.275H2001.44M2117.27 0.448013H2059.35M2059.35 58.3613V0.448013M2059.35 58.3613H2001.44M2059.35 0.448013H2001.44M2001.44 1158.71V1100.8M2001.44 1158.71H1943.53M2001.44 1100.8V1042.89M2001.44 1100.8H1943.53M2001.44 1042.89V984.974M2001.44 1042.89H1943.53M2001.44 984.974V927.061M2001.44 984.974H1943.53M2001.44 927.061V869.148M2001.44 927.061H1943.53M2001.44 869.148V811.235M2001.44 869.148H1943.53M2001.44 811.235V753.321M2001.44 811.235H1943.53M2001.44 753.321V695.408M2001.44 753.321H1943.53M2001.44 695.408V637.495M2001.44 695.408H1943.53M2001.44 637.495V579.581M2001.44 637.495H1943.53M2001.44 579.581V521.668M2001.44 579.581H1943.53M2001.44 521.668V463.755M2001.44 521.668H1943.53M2001.44 463.755V405.841M2001.44 463.755H1943.53M2001.44 405.841V347.928M2001.44 405.841H1943.53M2001.44 347.928V290.015M2001.44 347.928H1943.53M2001.44 290.015V232.101M2001.44 290.015H1943.53M2001.44 232.101V174.188M2001.44 232.101H1943.53M2001.44 174.188V116.275M2001.44 174.188H1943.53M2001.44 116.275V58.3613M2001.44 116.275H1943.53M2001.44 58.3613V0.448013M2001.44 58.3613H1943.53M2001.44 0.448013L1943.53 0.448027M1943.53 1158.71V1100.8M1943.53 1158.71H1885.61M1943.53 1100.8V1042.89M1943.53 1100.8H1885.61M1943.53 1042.89V984.974M1943.53 1042.89H1885.61M1943.53 984.974V927.061M1943.53 984.974H1885.61M1943.53 927.061V869.148M1943.53 927.061H1885.61M1943.53 869.148V811.235M1943.53 869.148H1885.61M1943.53 811.235V753.321M1943.53 811.235H1885.61M1943.53 753.321V695.408M1943.53 753.321H1885.61M1943.53 695.408V637.495M1943.53 695.408H1885.61M1943.53 637.495V579.581M1943.53 637.495H1885.61M1943.53 579.581V521.668M1943.53 579.581H1885.61M1943.53 521.668V463.755M1943.53 521.668H1885.61M1943.53 463.755V405.841M1943.53 463.755H1885.61M1943.53 405.841V347.928M1943.53 405.841H1885.61M1943.53 347.928V290.015M1943.53 347.928H1885.61M1943.53 290.015V232.101M1943.53 290.015H1885.61M1943.53 232.101V174.188M1943.53 232.101H1885.61M1943.53 174.188V116.275M1943.53 174.188H1885.61M1943.53 116.275V58.3613M1943.53 116.275H1885.61M1943.53 58.3613V0.448027M1943.53 58.3613H1885.61M1943.53 0.448027H1885.61M1885.61 1158.71V1100.8M1885.61 1158.71H1827.7M1885.61 1100.8V1042.89M1885.61 1100.8H1827.7M1885.61 1042.89V984.974M1885.61 1042.89H1827.7M1885.61 984.974V927.061M1885.61 984.974H1827.7M1885.61 927.061V869.148M1885.61 927.061H1827.7M1885.61 869.148V811.235M1885.61 869.148H1827.7M1885.61 811.235V753.321M1885.61 811.235H1827.7M1885.61 753.321V695.408M1885.61 753.321H1827.7M1885.61 695.408V637.495M1885.61 695.408H1827.7M1885.61 637.495V579.581M1885.61 637.495H1827.7M1885.61 579.581V521.668M1885.61 579.581H1827.7M1885.61 521.668V463.755M1885.61 521.668H1827.7M1885.61 463.755V405.841M1885.61 463.755H1827.7M1885.61 405.841V347.928M1885.61 405.841H1827.7M1885.61 347.928V290.015M1885.61 347.928H1827.7M1885.61 290.015V232.101M1885.61 290.015H1827.7M1885.61 232.101V174.188M1885.61 232.101H1827.7M1885.61 174.188V116.275M1885.61 174.188H1827.7M1885.61 116.275V58.3613M1885.61 116.275H1827.7M1885.61 58.3613V0.448027M1885.61 58.3613H1827.7M1885.61 0.448027H1827.7M1827.7 1158.71V1100.8M1827.7 1158.71H1769.79M1827.7 1100.8V1042.89M1827.7 1100.8H1769.79M1827.7 1042.89V984.974M1827.7 1042.89H1769.79M1827.7 984.974V927.061M1827.7 984.974H1769.79M1827.7 927.061V869.148M1827.7 927.061H1769.79M1827.7 869.148V811.235M1827.7 869.148H1769.79M1827.7 811.235V753.321M1827.7 811.235H1769.79M1827.7 753.321V695.408M1827.7 753.321H1769.79M1827.7 695.408V637.495M1827.7 695.408H1769.79M1827.7 637.495V579.581M1827.7 637.495H1769.79M1827.7 579.581V521.668M1827.7 579.581H1769.79M1827.7 521.668V463.755M1827.7 521.668H1769.79M1827.7 463.755V405.841M1827.7 463.755H1769.79M1827.7 405.841V347.928M1827.7 405.841H1769.79M1827.7 347.928V290.015M1827.7 347.928H1769.79M1827.7 290.015V232.101M1827.7 290.015H1769.79M1827.7 232.101V174.188M1827.7 232.101H1769.79M1827.7 174.188V116.275M1827.7 174.188H1769.79M1827.7 116.275V58.3613M1827.7 116.275H1769.79M1827.7 58.3613V0.448027M1827.7 58.3613H1769.79M1827.7 0.448027L1769.79 0.448042M1769.79 1158.71V1100.8M1769.79 1158.71H1711.87M1769.79 1100.8V1042.89M1769.79 1100.8H1711.87M1769.79 1042.89V984.974M1769.79 1042.89H1711.87M1769.79 984.974V927.061M1769.79 984.974H1711.87M1769.79 927.061V869.148M1769.79 927.061H1711.87M1769.79 869.148V811.235M1769.79 869.148H1711.87M1769.79 811.235V753.321M1769.79 811.235H1711.87M1769.79 753.321V695.408M1769.79 753.321H1711.87M1769.79 695.408V637.495M1769.79 695.408H1711.87M1769.79 637.495V579.581M1769.79 637.495H1711.87M1769.79 579.581V521.668M1769.79 579.581H1711.87M1769.79 521.668V463.755M1769.79 521.668H1711.87M1769.79 463.755V405.841M1769.79 463.755H1711.87M1769.79 405.841V347.928M1769.79 405.841H1711.87M1769.79 347.928V290.015M1769.79 347.928H1711.87M1769.79 290.015V232.101M1769.79 290.015H1711.87M1769.79 232.101V174.188M1769.79 232.101H1711.87M1769.79 174.188V116.275M1769.79 174.188H1711.87M1769.79 116.275V58.3613M1769.79 116.275H1711.87M1769.79 58.3613V0.448042M1769.79 58.3613H1711.87M1769.79 0.448042H1711.87M1711.87 1158.71V1100.8M1711.87 1158.71H1653.96M1711.87 1100.8V1042.89M1711.87 1100.8H1653.96M1711.87 1042.89V984.974M1711.87 1042.89H1653.96M1711.87 984.974V927.061M1711.87 984.974H1653.96M1711.87 927.061V869.148M1711.87 927.061H1653.96M1711.87 869.148V811.235M1711.87 869.148H1653.96M1711.87 811.235V753.321M1711.87 811.235H1653.96M1711.87 753.321V695.408M1711.87 753.321H1653.96M1711.87 695.408V637.495M1711.87 695.408H1653.96M1711.87 637.495V579.581M1711.87 637.495H1653.96M1711.87 579.581V521.668M1711.87 579.581H1653.96M1711.87 521.668V463.755M1711.87 521.668H1653.96M1711.87 463.755V405.841M1711.87 463.755H1653.96M1711.87 405.841V347.928M1711.87 405.841H1653.96M1711.87 347.928V290.015M1711.87 347.928H1653.96M1711.87 290.015V232.101M1711.87 290.015H1653.96M1711.87 232.101V174.188M1711.87 232.101H1653.96M1711.87 174.188V116.275M1711.87 174.188H1653.96M1711.87 116.275V58.3613M1711.87 116.275H1653.96M1711.87 58.3613V0.448042M1711.87 58.3613H1653.96M1711.87 0.448042H1653.96M1653.96 1158.71V1100.8M1653.96 1158.71H1596.05M1653.96 1100.8V1042.89M1653.96 1100.8H1596.05M1653.96 1042.89V984.974M1653.96 1042.89H1596.05M1653.96 984.974V927.061M1653.96 984.974H1596.05M1653.96 927.061V869.148M1653.96 927.061H1596.05M1653.96 869.148V811.235M1653.96 869.148H1596.05M1653.96 811.235V753.321M1653.96 811.235H1596.05M1653.96 753.321V695.408M1653.96 753.321H1596.05M1653.96 695.408V637.495M1653.96 695.408H1596.05M1653.96 637.495V579.581M1653.96 637.495H1596.05M1653.96 579.581V521.668M1653.96 579.581H1596.05M1653.96 521.668V463.755M1653.96 521.668H1596.05M1653.96 463.755V405.841M1653.96 463.755H1596.05M1653.96 405.841V347.928M1653.96 405.841H1596.05M1653.96 347.928V290.015M1653.96 347.928H1596.05M1653.96 290.015V232.101M1653.96 290.015H1596.05M1653.96 232.101V174.188M1653.96 232.101H1596.05M1653.96 174.188V116.275M1653.96 174.188H1596.05M1653.96 116.275V58.3613M1653.96 116.275H1596.05M1653.96 58.3613V0.448042M1653.96 58.3613H1596.05M1653.96 0.448042L1596.05 0.448056M1596.05 1158.71V1100.8M1596.05 1158.71H1538.13M1596.05 1100.8V1042.89M1596.05 1100.8H1538.13M1596.05 1042.89V984.974M1596.05 1042.89H1538.13M1596.05 984.974V927.061M1596.05 984.974H1538.13M1596.05 927.061V869.148M1596.05 927.061H1538.13M1596.05 869.148V811.235M1596.05 869.148H1538.13M1596.05 811.235V753.321M1596.05 811.235H1538.13M1596.05 753.321V695.408M1596.05 753.321H1538.13M1596.05 695.408V637.495M1596.05 695.408H1538.13M1596.05 637.495V579.581M1596.05 637.495H1538.13M1596.05 579.581V521.668M1596.05 579.581H1538.13M1596.05 521.668V463.755M1596.05 521.668H1538.13M1596.05 463.755V405.841M1596.05 463.755H1538.13M1596.05 405.841V347.928M1596.05 405.841H1538.13M1596.05 347.928V290.015M1596.05 347.928H1538.13M1596.05 290.015V232.101M1596.05 290.015H1538.13M1596.05 232.101V174.188M1596.05 232.101H1538.13M1596.05 174.188V116.275M1596.05 174.188H1538.13M1596.05 116.275V58.3613M1596.05 116.275H1538.13M1596.05 58.3613V0.448056M1596.05 58.3613H1538.13M1596.05 0.448056H1538.13M1538.13 1158.71V1100.8M1538.13 1158.71H1480.22M1538.13 1100.8V1042.89M1538.13 1100.8H1480.22M1538.13 1042.89V984.974M1538.13 1042.89H1480.22M1538.13 984.974V927.061M1538.13 984.974H1480.22M1538.13 927.061V869.148M1538.13 927.061H1480.22M1538.13 869.148V811.235M1538.13 869.148H1480.22M1538.13 811.235V753.321M1538.13 811.235H1480.22M1538.13 753.321V695.408M1538.13 753.321H1480.22M1538.13 695.408V637.495M1538.13 695.408H1480.22M1538.13 637.495V579.581M1538.13 637.495H1480.22M1538.13 579.581V521.668M1538.13 579.581H1480.22M1538.13 521.668V463.755M1538.13 521.668H1480.22M1538.13 463.755V405.841M1538.13 463.755H1480.22M1538.13 405.841V347.928M1538.13 405.841H1480.22M1538.13 347.928V290.015M1538.13 347.928H1480.22M1538.13 290.015V232.101M1538.13 290.015H1480.22M1538.13 232.101V174.188M1538.13 232.101H1480.22M1538.13 174.188V116.275M1538.13 174.188H1480.22M1538.13 116.275V58.3613M1538.13 116.275H1480.22M1538.13 58.3613V0.448056M1538.13 58.3613H1480.22M1538.13 0.448056L1480.22 0.44807M1480.22 1158.71V1100.8M1480.22 1158.71H1422.31M1480.22 1100.8V1042.89M1480.22 1100.8H1422.31M1480.22 1042.89V984.974M1480.22 1042.89H1422.31M1480.22 984.974V927.061M1480.22 984.974H1422.31M1480.22 927.061V869.148M1480.22 927.061H1422.31M1480.22 869.148V811.235M1480.22 869.148H1422.31M1480.22 811.235V753.321M1480.22 811.235H1422.31M1480.22 753.321V695.408M1480.22 753.321H1422.31M1480.22 695.408V637.495M1480.22 695.408H1422.31M1480.22 637.495V579.581M1480.22 637.495H1422.31M1480.22 579.581V521.668M1480.22 579.581H1422.31M1480.22 521.668V463.755M1480.22 521.668H1422.31M1480.22 463.755V405.841M1480.22 463.755H1422.31M1480.22 405.841V347.928M1480.22 405.841H1422.31M1480.22 347.928V290.015M1480.22 347.928H1422.31M1480.22 290.015V232.101M1480.22 290.015H1422.31M1480.22 232.101V174.188M1480.22 232.101H1422.31M1480.22 174.188V116.275M1480.22 174.188H1422.31M1480.22 116.275V58.3613M1480.22 116.275H1422.31M1480.22 58.3613V0.44807M1480.22 58.3613H1422.31M1480.22 0.44807H1422.31M1422.31 1158.71V1100.8M1422.31 1158.71H1364.39M1422.31 1100.8V1042.89M1422.31 1100.8H1364.39M1422.31 1042.89V984.974M1422.31 1042.89H1364.39M1422.31 984.974V927.061M1422.31 984.974H1364.39M1422.31 927.061V869.148M1422.31 927.061H1364.39M1422.31 869.148V811.235M1422.31 869.148H1364.39M1422.31 811.235V753.321M1422.31 811.235H1364.39M1422.31 753.321V695.408M1422.31 753.321H1364.39M1422.31 695.408V637.495M1422.31 695.408H1364.39M1422.31 637.495V579.581M1422.31 637.495H1364.39M1422.31 579.581V521.668M1422.31 579.581H1364.39M1422.31 521.668V463.755M1422.31 521.668H1364.39M1422.31 463.755V405.841M1422.31 463.755H1364.39M1422.31 405.841V347.928M1422.31 405.841H1364.39M1422.31 347.928V290.015M1422.31 347.928H1364.39M1422.31 290.015V232.101M1422.31 290.015H1364.39M1422.31 232.101V174.188M1422.31 232.101H1364.39M1422.31 174.188V116.275M1422.31 174.188H1364.39M1422.31 116.275V58.3613M1422.31 116.275L1364.39 116.275M1422.31 58.3613V0.44807M1422.31 58.3613L1364.39 58.3615M1422.31 0.44807H1364.39M1364.39 1158.71V1100.8M1364.39 1158.71H1306.48M1364.39 1100.8V1042.89M1364.39 1100.8H1306.48M1364.39 1042.89V984.974M1364.39 1042.89H1306.48M1364.39 984.974V927.061M1364.39 984.974H1306.48M1364.39 927.061V869.148M1364.39 927.061H1306.48M1364.39 869.148V811.235M1364.39 869.148H1306.48M1364.39 811.235V753.321M1364.39 811.235H1306.48M1364.39 753.321V695.408M1364.39 753.321H1306.48M1364.39 695.408V637.495M1364.39 695.408H1306.48M1364.39 637.495V579.581M1364.39 637.495H1306.48M1364.39 579.581V521.668M1364.39 579.581H1306.48M1364.39 521.668V463.755M1364.39 521.668H1306.48M1364.39 463.755V405.841M1364.39 463.755H1306.48M1364.39 405.841V347.928M1364.39 405.841H1306.48M1364.39 347.928V290.015M1364.39 347.928H1306.48M1364.39 290.015V232.101M1364.39 290.015H1306.48M1364.39 232.101V174.188M1364.39 232.101H1306.48M1364.39 174.188V116.275M1364.39 174.188H1306.48M1364.39 116.275V58.3615M1364.39 116.275H1306.48M1364.39 58.3615V0.44807M1364.39 58.3615H1306.48M1364.39 0.44807L1306.48 0.448085M1306.48 1158.71V1100.8M1306.48 1158.71H1248.57M1306.48 1100.8V1042.89M1306.48 1100.8H1248.57M1306.48 1042.89V984.974M1306.48 1042.89H1248.57M1306.48 984.974V927.061M1306.48 984.974H1248.57M1306.48 927.061V869.148M1306.48 927.061H1248.57M1306.48 869.148V811.235M1306.48 869.148H1248.57M1306.48 811.235V753.321M1306.48 811.235H1248.57M1306.48 753.321V695.408M1306.48 753.321H1248.57M1306.48 695.408V637.495M1306.48 695.408H1248.57M1306.48 637.495V579.581M1306.48 637.495H1248.57M1306.48 579.581V521.668M1306.48 579.581H1248.57M1306.48 521.668V463.755M1306.48 521.668H1248.57M1306.48 463.755V405.841M1306.48 463.755H1248.57M1306.48 405.841V347.928M1306.48 405.841H1248.57M1306.48 347.928V290.015M1306.48 347.928H1248.57M1306.48 290.015V232.101M1306.48 290.015H1248.57M1306.48 232.101V174.188M1306.48 232.101H1248.57M1306.48 174.188V116.275M1306.48 174.188H1248.57M1306.48 116.275V58.3615M1306.48 116.275H1248.57M1306.48 58.3615V0.448085M1306.48 58.3615H1248.57M1306.48 0.448085H1248.57M1248.57 1158.71V1100.8M1248.57 1158.71H1190.65M1248.57 1100.8V1042.89M1248.57 1100.8H1190.65M1248.57 1042.89V984.974M1248.57 1042.89H1190.65M1248.57 984.974V927.061M1248.57 984.974H1190.65M1248.57 927.061V869.148M1248.57 927.061H1190.65M1248.57 869.148V811.235M1248.57 869.148H1190.65M1248.57 811.235V753.321M1248.57 811.235H1190.65M1248.57 753.321V695.408M1248.57 753.321H1190.65M1248.57 695.408V637.495M1248.57 695.408H1190.65M1248.57 637.495V579.581M1248.57 637.495H1190.65M1248.57 579.581V521.668M1248.57 579.581H1190.65M1248.57 521.668V463.755M1248.57 521.668H1190.65M1248.57 463.755V405.841M1248.57 463.755H1190.65M1248.57 405.841V347.928M1248.57 405.841H1190.65M1248.57 347.928V290.015M1248.57 347.928H1190.65M1248.57 290.015V232.101M1248.57 290.015H1190.65M1248.57 232.101V174.188M1248.57 232.101H1190.65M1248.57 174.188V116.275M1248.57 174.188H1190.65M1248.57 116.275V58.3615M1248.57 116.275H1190.65M1248.57 58.3615V0.448085M1248.57 58.3615H1190.65M1248.57 0.448085H1190.65M1190.65 1158.71V1100.8M1190.65 1158.71H1132.74M1190.65 1100.8V1042.89M1190.65 1100.8H1132.74M1190.65 1042.89V984.974M1190.65 1042.89H1132.74M1190.65 984.974V927.061M1190.65 984.974H1132.74M1190.65 927.061V869.148M1190.65 927.061H1132.74M1190.65 869.148V811.235M1190.65 869.148H1132.74M1190.65 811.235V753.321M1190.65 811.235H1132.74M1190.65 753.321V695.408M1190.65 753.321H1132.74M1190.65 695.408V637.495M1190.65 695.408H1132.74M1190.65 637.495V579.581M1190.65 637.495H1132.74M1190.65 579.581V521.668M1190.65 579.581H1132.74M1190.65 521.668V463.755M1190.65 521.668H1132.74M1190.65 463.755V405.841M1190.65 463.755H1132.74M1190.65 405.841V347.928M1190.65 405.841H1132.74M1190.65 347.928V290.015M1190.65 347.928H1132.74M1190.65 290.015V232.101M1190.65 290.015H1132.74M1190.65 232.101V174.188M1190.65 232.101H1132.74M1190.65 174.188V116.275M1190.65 174.188H1132.74M1190.65 116.275V58.3615M1190.65 116.275H1132.74M1190.65 58.3615V0.448085M1190.65 58.3615H1132.74M1190.65 0.448085L1132.74 0.448099M1132.74 1158.71V1100.8M1132.74 1158.71H1074.83M1132.74 1100.8V1042.89M1132.74 1100.8H1074.83M1132.74 1042.89V984.974M1132.74 1042.89H1074.83M1132.74 984.974V927.061M1132.74 984.974H1074.83M1132.74 927.061V869.148M1132.74 927.061H1074.83M1132.74 869.148V811.235M1132.74 869.148H1074.83M1132.74 811.235V753.321M1132.74 811.235H1074.83M1132.74 753.321V695.408M1132.74 753.321H1074.83M1132.74 695.408V637.495M1132.74 695.408H1074.83M1132.74 637.495V579.581M1132.74 637.495H1074.83M1132.74 579.581V521.668M1132.74 579.581H1074.83M1132.74 521.668V463.755M1132.74 521.668H1074.83M1132.74 463.755V405.841M1132.74 463.755H1074.83M1132.74 405.841V347.928M1132.74 405.841H1074.83M1132.74 347.928V290.015M1132.74 347.928H1074.83M1132.74 290.015V232.101M1132.74 290.015H1074.83M1132.74 232.101V174.188M1132.74 232.101H1074.83M1132.74 174.188V116.275M1132.74 174.188H1074.83M1132.74 116.275V58.3615M1132.74 116.275H1074.83M1132.74 58.3615V0.448099M1132.74 58.3615H1074.83M1132.74 0.448099H1074.83M1074.83 1158.71V1100.8M1074.83 1158.71H1016.91M1074.83 1100.8V1042.89M1074.83 1100.8H1016.91M1074.83 1042.89V984.974M1074.83 1042.89H1016.91M1074.83 984.974V927.061M1074.83 984.974H1016.91M1074.83 927.061V869.148M1074.83 927.061H1016.91M1074.83 869.148V811.235M1074.83 869.148H1016.91M1074.83 811.235V753.321M1074.83 811.235H1016.91M1074.83 753.321V695.408M1074.83 753.321H1016.91M1074.83 695.408V637.495M1074.83 695.408H1016.91M1074.83 637.495V579.581M1074.83 637.495H1016.91M1074.83 579.581V521.668M1074.83 579.581H1016.91M1074.83 521.668V463.755M1074.83 521.668H1016.91M1074.83 463.755V405.841M1074.83 463.755H1016.91M1074.83 405.841V347.928M1074.83 405.841H1016.91M1074.83 347.928V290.015M1074.83 347.928H1016.91M1074.83 290.015V232.101M1074.83 290.015H1016.91M1074.83 232.101V174.188M1074.83 232.101H1016.91M1074.83 174.188V116.275M1074.83 174.188H1016.91M1074.83 116.275V58.3615M1074.83 116.275H1016.91M1074.83 58.3615V0.448099M1074.83 58.3615H1016.91M1074.83 0.448099H1016.91M1016.91 1158.71V1100.8M1016.91 1158.71H959M1016.91 1100.8V1042.89M1016.91 1100.8H959M1016.91 1042.89V984.974M1016.91 1042.89H959M1016.91 984.974V927.061M1016.91 984.974H959M1016.91 927.061V869.148M1016.91 927.061H959M1016.91 869.148V811.235M1016.91 869.148H959M1016.91 811.235V753.321M1016.91 811.235H959M1016.91 753.321V695.408M1016.91 753.321H959M1016.91 695.408V637.495M1016.91 695.408H959M1016.91 637.495V579.581M1016.91 637.495H959M1016.91 579.581V521.668M1016.91 579.581H959M1016.91 521.668V463.755M1016.91 521.668H959M1016.91 463.755V405.841M1016.91 463.755H959M1016.91 405.841V347.928M1016.91 405.841H959M1016.91 347.928V290.015M1016.91 347.928H959M1016.91 290.015V232.101M1016.91 290.015H959M1016.91 232.101V174.188M1016.91 232.101H959M1016.91 174.188V116.275M1016.91 174.188H959M1016.91 116.275V58.3615M1016.91 116.275H959M1016.91 58.3615V0.448099M1016.91 58.3615H959M1016.91 0.448099L959 0.448114M959 1158.71V1100.8M959 1158.71H901.086M959 1100.8V1042.89M959 1100.8H901.086M959 1042.89V984.974M959 1042.89H901.086M959 984.974V927.061M959 984.974H901.086M959 927.061V869.148M959 927.061H901.086M959 869.148V811.235M959 869.148H901.086M959 811.235V753.321M959 811.235H901.086M959 753.321V695.408M959 753.321H901.086M959 695.408V637.495M959 695.408H901.086M959 637.495V579.581M959 637.495H901.086M959 579.581V521.668M959 579.581H901.086M959 521.668V463.755M959 521.668H901.086M959 463.755V405.841M959 463.755H901.086M959 405.841V347.928M959 405.841H901.086M959 347.928V290.015M959 347.928H901.086M959 290.015V232.101M959 290.015H901.086M959 232.101V174.188M959 232.101H901.086M959 174.188V116.275M959 174.188H901.086M959 116.275V58.3615M959 116.275H901.086M959 58.3615V0.448114M959 58.3615H901.086M959 0.448114H901.086M901.086 1158.71V1100.8M901.086 1158.71H843.173M901.086 1100.8V1042.89M901.086 1100.8H843.173M901.086 1042.89V984.974M901.086 1042.89H843.173M901.086 984.974V927.061M901.086 984.974H843.173M901.086 927.061V869.148M901.086 927.061H843.173M901.086 869.148V811.235M901.086 869.148H843.173M901.086 811.235V753.321M901.086 811.235H843.173M901.086 753.321V695.408M901.086 753.321H843.173M901.086 695.408V637.495M901.086 695.408H843.173M901.086 637.495V579.581M901.086 637.495H843.173M901.086 579.581V521.668M901.086 579.581H843.173M901.086 521.668V463.755M901.086 521.668H843.173M901.086 463.755V405.841M901.086 463.755H843.173M901.086 405.841V347.928M901.086 405.841H843.173M901.086 347.928V290.015M901.086 347.928H843.173M901.086 290.015V232.101M901.086 290.015H843.173M901.086 232.101V174.188M901.086 232.101H843.173M901.086 174.188V116.275M901.086 174.188H843.173M901.086 116.275V58.3615M901.086 116.275H843.173M901.086 58.3615V0.448114M901.086 58.3615H843.173M901.086 0.448114H843.173M843.173 1158.71V1100.8M843.173 1158.71H785.26M843.173 1100.8V1042.89M843.173 1100.8H785.26M843.173 1042.89V984.974M843.173 1042.89H785.26M843.173 984.974V927.061M843.173 984.974H785.26M843.173 927.061V869.148M843.173 927.061H785.26M843.173 869.148V811.235M843.173 869.148H785.26M843.173 811.235V753.321M843.173 811.235H785.26M843.173 753.321V695.408M843.173 753.321H785.26M843.173 695.408V637.495M843.173 695.408H785.26M843.173 637.495V579.581M843.173 637.495H785.26M843.173 579.581V521.668M843.173 579.581H785.26M843.173 521.668V463.755M843.173 521.668H785.26M843.173 463.755V405.841M843.173 463.755H785.26M843.173 405.841V347.928M843.173 405.841H785.26M843.173 347.928V290.015M843.173 347.928H785.26M843.173 290.015V232.101M843.173 290.015H785.26M843.173 232.101V174.188M843.173 232.101H785.26M843.173 174.188V116.275M843.173 174.188H785.26M843.173 116.275V58.3615M843.173 116.275H785.26M843.173 58.3615V0.448114M843.173 58.3615H785.26M843.173 0.448114L785.26 0.448128M785.26 1158.71V1100.8M785.26 1158.71H727.346M785.26 1100.8V1042.89M785.26 1100.8H727.346M785.26 1042.89V984.974M785.26 1042.89H727.346M785.26 984.974V927.061M785.26 984.974H727.346M785.26 927.061V869.148M785.26 927.061H727.346M785.26 869.148V811.235M785.26 869.148H727.346M785.26 811.235V753.321M785.26 811.235H727.346M785.26 753.321V695.408M785.26 753.321H727.346M785.26 695.408V637.495M785.26 695.408H727.346M785.26 637.495V579.581M785.26 637.495H727.346M785.26 579.581V521.668M785.26 579.581H727.346M785.26 521.668V463.755M785.26 521.668H727.346M785.26 463.755V405.841M785.26 463.755H727.346M785.26 405.841V347.928M785.26 405.841H727.346M785.26 347.928V290.015M785.26 347.928H727.346M785.26 290.015V232.101M785.26 290.015H727.346M785.26 232.101V174.188M785.26 232.101H727.346M785.26 174.188V116.275M785.26 174.188H727.346M785.26 116.275V58.3615M785.26 116.275H727.346M785.26 58.3615V0.448128M785.26 58.3615H727.346M785.26 0.448128H727.346M727.346 1158.71V1100.8M727.346 1158.71H669.433M727.346 1100.8V1042.89M727.346 1100.8H669.433M727.346 1042.89V984.974M727.346 1042.89H669.433M727.346 984.974V927.061M727.346 984.974H669.433M727.346 927.061V869.148M727.346 927.061H669.433M727.346 869.148V811.235M727.346 869.148H669.433M727.346 811.235V753.321M727.346 811.235H669.433M727.346 753.321V695.408M727.346 753.321H669.433M727.346 695.408V637.495M727.346 695.408H669.433M727.346 637.495V579.581M727.346 637.495H669.433M727.346 579.581V521.668M727.346 579.581H669.433M727.346 521.668V463.755M727.346 521.668H669.433M727.346 463.755V405.841M727.346 463.755H669.433M727.346 405.841V347.928M727.346 405.841H669.433M727.346 347.928V290.015M727.346 347.928H669.433M727.346 290.015V232.101M727.346 290.015H669.433M727.346 232.101V174.188M727.346 232.101H669.433M727.346 174.188V116.275M727.346 174.188H669.433M727.346 116.275V58.3615M727.346 116.275H669.433M727.346 58.3615V0.448128M727.346 58.3615H669.433M727.346 0.448128H669.433M669.433 1158.71V1100.8M669.433 1158.71H611.52M669.433 1100.8V1042.89M669.433 1100.8H611.52M669.433 1042.89V984.974M669.433 1042.89H611.52M669.433 984.974V927.061M669.433 984.974H611.52M669.433 927.061V869.148M669.433 927.061H611.52M669.433 869.148V811.235M669.433 869.148H611.52M669.433 811.235V753.321M669.433 811.235H611.52M669.433 753.321V695.408M669.433 753.321H611.52M669.433 695.408V637.495M669.433 695.408H611.52M669.433 637.495V579.581M669.433 637.495H611.52M669.433 579.581V521.668M669.433 579.581H611.52M669.433 521.668V463.755M669.433 521.668H611.52M669.433 463.755V405.841M669.433 463.755H611.52M669.433 405.841V347.928M669.433 405.841H611.52M669.433 347.928V290.015M669.433 347.928H611.52M669.433 290.015V232.101M669.433 290.015H611.52M669.433 232.101V174.188M669.433 232.101H611.52M669.433 174.188V116.275M669.433 174.188H611.52M669.433 116.275V58.3615M669.433 116.275H611.52M669.433 58.3615V0.448128M669.433 58.3615H611.52M669.433 0.448128L611.52 0.448143M611.52 1158.71V1100.8M611.52 1158.71H553.606M611.52 1100.8V1042.89M611.52 1100.8H553.606M611.52 1042.89V984.974M611.52 1042.89H553.606M611.52 984.974V927.061M611.52 984.974H553.606M611.52 927.061V869.148M611.52 927.061H553.606M611.52 869.148V811.235M611.52 869.148H553.606M611.52 811.235V753.321M611.52 811.235H553.606M611.52 753.321V695.408M611.52 753.321H553.606M611.52 695.408V637.495M611.52 695.408H553.606M611.52 637.495V579.581M611.52 637.495H553.606M611.52 579.581V521.668M611.52 579.581H553.606M611.52 521.668V463.755M611.52 521.668H553.606M611.52 463.755V405.841M611.52 463.755H553.606M611.52 405.841V347.928M611.52 405.841H553.606M611.52 347.928V290.015M611.52 347.928H553.606M611.52 290.015V232.101M611.52 290.015H553.606M611.52 232.101V174.188M611.52 232.101H553.606M611.52 174.188V116.275M611.52 174.188H553.606M611.52 116.275V58.3615M611.52 116.275H553.606M611.52 58.3615V0.448143M611.52 58.3615H553.606M611.52 0.448143H553.606M553.606 1158.71V1100.8M553.606 1158.71H495.693M553.606 1100.8V1042.89M553.606 1100.8H495.693M553.606 1042.89V984.974M553.606 1042.89H495.693M553.606 984.974V927.061M553.606 984.974H495.693M553.606 927.061V869.148M553.606 927.061H495.693M553.606 869.148V811.235M553.606 869.148H495.693M553.606 811.235V753.321M553.606 811.235H495.693M553.606 753.321V695.408M553.606 753.321H495.693M553.606 695.408V637.495M553.606 695.408H495.693M553.606 637.495V579.581M553.606 637.495H495.693M553.606 579.581V521.668M553.606 579.581H495.693M553.606 521.668V463.755M553.606 521.668H495.693M553.606 463.755V405.841M553.606 463.755H495.693M553.606 405.841V347.928M553.606 405.841H495.693M553.606 347.928V290.015M553.606 347.928H495.693M553.606 290.015V232.101M553.606 290.015H495.693M553.606 232.101V174.188M553.606 232.101H495.693M553.606 174.188V116.275M553.606 174.188H495.693M553.606 116.275V58.3615M553.606 116.275H495.693M553.606 58.3615V0.448143M553.606 58.3615H495.693M553.606 0.448143H495.693M495.693 1158.71V1100.8M495.693 1158.71H437.78M495.693 1100.8V1042.89M495.693 1100.8H437.78M495.693 1042.89V984.974M495.693 1042.89H437.78M495.693 984.974V927.061M495.693 984.974H437.78M495.693 927.061V869.148M495.693 927.061H437.78M495.693 869.148V811.235M495.693 869.148H437.78M495.693 811.235V753.321M495.693 811.235H437.78M495.693 753.321V695.408M495.693 753.321H437.78M495.693 695.408V637.495M495.693 695.408H437.78M495.693 637.495V579.581M495.693 637.495H437.78M495.693 579.581V521.668M495.693 579.581H437.78M495.693 521.668V463.755M495.693 521.668H437.78M495.693 463.755V405.841M495.693 463.755H437.78M495.693 405.841V347.928M495.693 405.841H437.78M495.693 347.928V290.015M495.693 347.928H437.78M495.693 290.015V232.101M495.693 290.015H437.78M495.693 232.101V174.188M495.693 232.101H437.78M495.693 174.188V116.275M495.693 174.188H437.78M495.693 116.275V58.3615M495.693 116.275H437.78M495.693 58.3615V0.448143M495.693 58.3615H437.78M495.693 0.448143L437.78 0.448157M437.78 1158.71V1100.8M437.78 1158.71H379.866M437.78 1100.8V1042.89M437.78 1100.8H379.866M437.78 1042.89V984.974M437.78 1042.89H379.866M437.78 984.974V927.061M437.78 984.974H379.866M437.78 927.061V869.148M437.78 927.061H379.866M437.78 869.148V811.235M437.78 869.148H379.866M437.78 811.235V753.321M437.78 811.235H379.866M437.78 753.321V695.408M437.78 753.321H379.866M437.78 695.408V637.495M437.78 695.408H379.866M437.78 637.495V579.581M437.78 637.495H379.866M437.78 579.581V521.668M437.78 579.581H379.866M437.78 521.668V463.755M437.78 521.668H379.866M437.78 463.755V405.841M437.78 463.755H379.866M437.78 405.841V347.928M437.78 405.841H379.866M437.78 347.928V290.015M437.78 347.928H379.866M437.78 290.015V232.101M437.78 290.015H379.866M437.78 232.101V174.188M437.78 232.101H379.866M437.78 174.188V116.275M437.78 174.188H379.866M437.78 116.275V58.3615M437.78 116.275H379.866M437.78 58.3615V0.448157M437.78 58.3615H379.866M437.78 0.448157H379.866M379.866 1158.71V1100.8M379.866 1158.71H321.953M379.866 1100.8V1042.89M379.866 1100.8H321.953M379.866 1042.89V984.974M379.866 1042.89H321.953M379.866 984.974V927.061M379.866 984.974H321.953M379.866 927.061V869.148M379.866 927.061H321.953M379.866 869.148V811.235M379.866 869.148H321.953M379.866 811.235V753.321M379.866 811.235H321.953M379.866 753.321V695.408M379.866 753.321H321.953M379.866 695.408V637.495M379.866 695.408H321.953M379.866 637.495V579.581M379.866 637.495H321.953M379.866 579.581V521.668M379.866 579.581H321.953M379.866 521.668V463.755M379.866 521.668H321.953M379.866 463.755V405.841M379.866 463.755H321.953M379.866 405.841V347.928M379.866 405.841H321.953M379.866 347.928V290.015M379.866 347.928H321.953M379.866 290.015V232.101M379.866 290.015H321.953M379.866 232.101V174.188M379.866 232.101H321.953M379.866 174.188V116.275M379.866 174.188H321.953M379.866 116.275V58.3615M379.866 116.275H321.953M379.866 58.3615V0.448157M379.866 58.3615H321.953M379.866 0.448157L321.953 0.448172M321.953 1158.71V1100.8M321.953 1158.71H264.04M321.953 1100.8V1042.89M321.953 1100.8H264.04M321.953 1042.89V984.974M321.953 1042.89H264.04M321.953 984.974V927.061M321.953 984.974H264.04M321.953 927.061V869.148M321.953 927.061H264.04M321.953 869.148V811.235M321.953 869.148H264.04M321.953 811.235V753.321M321.953 811.235H264.04M321.953 753.321V695.408M321.953 753.321H264.04M321.953 695.408V637.495M321.953 695.408H264.04M321.953 637.495V579.581M321.953 637.495H264.04M321.953 579.581V521.668M321.953 579.581H264.04M321.953 521.668V463.755M321.953 521.668H264.04M321.953 463.755V405.841M321.953 463.755H264.04M321.953 405.841V347.928M321.953 405.841H264.04M321.953 347.928V290.015M321.953 347.928H264.04M321.953 290.015V232.101M321.953 290.015H264.04M321.953 232.101V174.188M321.953 232.101H264.04M321.953 174.188V116.275M321.953 174.188H264.04M321.953 116.275V58.3615M321.953 116.275H264.04M321.953 58.3615V0.448172M321.953 58.3615H264.04M321.953 0.448172H264.04M264.04 1158.71V1100.8M264.04 1158.71H206.127M264.04 1100.8V1042.89M264.04 1100.8H206.127M264.04 1042.89V984.974M264.04 1042.89H206.127M264.04 984.974V927.061M264.04 984.974H206.127M264.04 927.061V869.148M264.04 927.061H206.127M264.04 869.148V811.235M264.04 869.148H206.127M264.04 811.235V753.321M264.04 811.235H206.127M264.04 753.321V695.408M264.04 753.321H206.127M264.04 695.408V637.495M264.04 695.408H206.127M264.04 637.495V579.581M264.04 637.495H206.127M264.04 579.581V521.668M264.04 579.581H206.127M264.04 521.668V463.755M264.04 521.668H206.127M264.04 463.755V405.841M264.04 463.755H206.127M264.04 405.841V347.928M264.04 405.841H206.127M264.04 347.928V290.015M264.04 347.928H206.127M264.04 290.015V232.101M264.04 290.015H206.127M264.04 232.101V174.188M264.04 232.101H206.127M264.04 174.188V116.275M264.04 174.188H206.127M264.04 116.275V58.3615M264.04 116.275H206.127M264.04 58.3615V0.448172M264.04 58.3615H206.127M264.04 0.448172H206.127M206.127 1158.71V1100.8M206.127 1158.71H148.213M206.127 1100.8V1042.89M206.127 1100.8H148.213M206.127 1042.89V984.974M206.127 1042.89H148.213M206.127 984.974V927.061M206.127 984.974H148.213M206.127 927.061V869.148M206.127 927.061H148.213M206.127 869.148V811.235M206.127 869.148H148.213M206.127 811.235V753.321M206.127 811.235H148.213M206.127 753.321V695.408M206.127 753.321H148.213M206.127 695.408V637.495M206.127 695.408H148.213M206.127 637.495V579.581M206.127 637.495H148.213M206.127 579.581V521.668M206.127 579.581H148.213M206.127 521.668V463.755M206.127 521.668H148.213M206.127 463.755V405.841M206.127 463.755H148.213M206.127 405.841V347.928M206.127 405.841H148.213M206.127 347.928V290.015M206.127 347.928H148.213M206.127 290.015V232.101M206.127 290.015H148.213M206.127 232.101V174.188M206.127 232.101H148.213M206.127 174.188V116.275M206.127 174.188H148.213M206.127 116.275V58.3615M206.127 116.275H148.213M206.127 58.3615V0.448172M206.127 58.3615H148.213M206.127 0.448172L148.213 0.448186M148.213 1158.71V1100.8M148.213 1158.71H90.2999M148.213 1100.8V1042.89M148.213 1100.8H90.2999M148.213 1042.89V984.974M148.213 1042.89H90.2999M148.213 984.974V927.061M148.213 984.974H90.2999M148.213 927.061V869.148M148.213 927.061H90.2999M148.213 869.148V811.235M148.213 869.148H90.2999M148.213 811.235V753.321M148.213 811.235H90.2999M148.213 753.321V695.408M148.213 753.321H90.2999M148.213 695.408V637.495M148.213 695.408H90.2999M148.213 637.495V579.581M148.213 637.495H90.2999M148.213 579.581V521.668M148.213 579.581H90.2999M148.213 521.668V463.755M148.213 521.668H90.2999M148.213 463.755V405.841M148.213 463.755H90.2999M148.213 405.841V347.928M148.213 405.841H90.2999M148.213 347.928V290.015M148.213 347.928H90.2999M148.213 290.015V232.101M148.213 290.015H90.2999M148.213 232.101V174.188M148.213 232.101H90.2999M148.213 174.188V116.275M148.213 174.188H90.2999M148.213 116.275V58.3615M148.213 116.275H90.2999M148.213 58.3615V0.448186M148.213 58.3615H90.2999M148.213 0.448186H90.2999M90.2999 1158.71V1100.8M90.2999 1158.71H32.3866M90.2999 1100.8V1042.89M90.2999 1100.8H32.3866M90.2999 1042.89V984.974M90.2999 1042.89H32.3866M90.2999 984.974V927.061M90.2999 984.974H32.3866M90.2999 927.061V869.148M90.2999 927.061H32.3866M90.2999 869.148V811.235M90.2999 869.148H32.3866M90.2999 811.235V753.321M90.2999 811.235H32.3866M90.2999 753.321V695.408M90.2999 753.321H32.3866M90.2999 695.408V637.495M90.2999 695.408H32.3866M90.2999 637.495V579.581M90.2999 637.495H32.3866M90.2999 579.581V521.668M90.2999 579.581H32.3866M90.2999 521.668V463.755M90.2999 521.668H32.3866M90.2999 463.755V405.841M90.2999 463.755H32.3866M90.2999 405.841V347.928M90.2999 405.841H32.3866M90.2999 347.928V290.015M90.2999 347.928H32.3866M90.2999 290.015V232.101M90.2999 290.015H32.3865M90.2999 232.101V174.188M90.2999 232.101H32.3865M90.2999 174.188V116.275M90.2999 174.188H32.3865M90.2999 116.275V58.3615M90.2999 116.275H32.3865M90.2999 58.3615V0.448186M90.2999 58.3615H32.3865M90.2999 0.448186H32.3865M32.3866 1158.71V1100.8M32.3866 1158.71H-25.5267M32.3866 1100.8V1042.89M32.3866 1100.8H-25.5267M32.3866 1042.89V984.974M32.3866 1042.89H-25.5267M32.3866 984.974V927.061M32.3866 984.974H-25.5267M32.3866 927.061V869.148M32.3866 927.061H-25.5267M32.3866 869.148V811.235M32.3866 869.148H-25.5267M32.3866 811.235V753.321M32.3866 811.235H-25.5267M32.3866 753.321V695.408M32.3866 753.321H-25.5267M32.3866 695.408V637.495M32.3866 695.408H-25.5267M32.3866 637.495V579.581M32.3866 637.495H-25.5267M32.3866 579.581V521.668M32.3866 579.581H-25.5267M32.3866 521.668V463.755M32.3866 521.668H-25.5267M32.3866 463.755V405.841M32.3866 463.755H-25.5267M32.3866 405.841V347.928M32.3866 405.841H-25.5267M32.3866 347.928L32.3865 290.015M32.3866 347.928H-25.5267M32.3865 290.015V232.101M32.3865 290.015H-25.5269M32.3865 232.101V174.188M32.3865 232.101H-25.5269M32.3865 174.188V116.275M32.3865 174.188H-25.5269M32.3865 116.275V58.3615M32.3865 116.275H-25.5269M32.3865 58.3615V0.448186M32.3865 58.3615H-25.5269M32.3865 0.448186L-25.5269 0.448201M-25.5267 1158.71V1100.8M-25.5267 1158.71H-83.4401M-25.5267 1100.8V1042.89M-25.5267 1100.8H-83.4401M-25.5267 1042.89V984.974M-25.5267 1042.89H-83.4401M-25.5267 984.974V927.061M-25.5267 984.974H-83.4401M-25.5267 927.061V869.148M-25.5267 927.061H-83.4401M-25.5267 869.148V811.235M-25.5267 869.148H-83.4401M-25.5267 811.235V753.321M-25.5267 811.235H-83.4401M-25.5267 753.321V695.408M-25.5267 753.321H-83.4401M-25.5267 695.408V637.495M-25.5267 695.408H-83.4401M-25.5267 637.495V579.581M-25.5267 637.495H-83.4401M-25.5267 579.581V521.668M-25.5267 579.581H-83.4401M-25.5267 521.668V463.755M-25.5267 521.668H-83.4401M-25.5267 463.755V405.841M-25.5267 463.755H-83.4401M-25.5267 405.841V347.928M-25.5267 405.841H-83.4401M-25.5267 347.928L-25.5269 290.015M-25.5267 347.928H-83.4401M-25.5269 290.015V232.101M-25.5269 290.015H-83.4402M-25.5269 232.101V174.188M-25.5269 232.101H-83.4402M-25.5269 174.188V116.275M-25.5269 174.188H-83.4402M-25.5269 116.275V58.3615M-25.5269 116.275H-83.4402M-25.5269 58.3615V0.448201M-25.5269 58.3615H-83.4402M-25.5269 0.448201H-83.4402M-83.4401 1158.71V1100.8M-83.4401 1158.71H-141.353M-83.4401 1100.8V1042.89M-83.4401 1100.8H-141.353M-83.4401 1042.89V984.974M-83.4401 1042.89H-141.353M-83.4401 984.974V927.061M-83.4401 984.974H-141.353M-83.4401 927.061V869.148M-83.4401 927.061H-141.353M-83.4401 869.148V811.235M-83.4401 869.148H-141.353M-83.4401 811.235V753.321M-83.4401 811.235H-141.353M-83.4401 753.321V695.408M-83.4401 753.321H-141.353M-83.4401 695.408V637.495M-83.4401 695.408H-141.353M-83.4401 637.495V579.581M-83.4401 637.495H-141.353M-83.4401 579.581V521.668M-83.4401 579.581H-141.353M-83.4401 521.668V463.755M-83.4401 521.668H-141.353M-83.4401 463.755V405.841M-83.4401 463.755H-141.353M-83.4401 405.841V347.928M-83.4401 405.841H-141.353M-83.4401 347.928L-83.4402 290.015M-83.4401 347.928H-141.353M-83.4402 290.015V232.101M-83.4402 290.015H-141.354M-83.4402 232.101V174.188M-83.4402 232.101H-141.354M-83.4402 174.188V116.275M-83.4402 174.188H-141.354M-83.4402 116.275V58.3615M-83.4402 116.275H-141.354M-83.4402 58.3615V0.448201M-83.4402 58.3615H-141.354M-83.4402 0.448201H-141.354M-141.353 1158.71V1100.8M-141.353 1158.71H-199.267M-141.353 1100.8V1042.89M-141.353 1100.8H-199.267M-141.353 1042.89V984.974M-141.353 1042.89H-199.267M-141.353 984.974V927.061M-141.353 984.974H-199.267M-141.353 927.061V869.148M-141.353 927.061H-199.267M-141.353 869.148V811.235M-141.353 869.148H-199.267M-141.353 811.235V753.321M-141.353 811.235H-199.267M-141.353 753.321V695.408M-141.353 753.321H-199.267M-141.353 695.408V637.495M-141.353 695.408H-199.267M-141.353 637.495V579.581M-141.353 637.495H-199.267M-141.353 579.581V521.668M-141.353 579.581H-199.267M-141.353 521.668V463.755M-141.353 521.668H-199.267M-141.353 463.755V405.841M-141.353 463.755H-199.267M-141.353 405.841V347.928M-141.353 405.841H-199.267M-141.353 347.928L-141.354 290.015M-141.353 347.928H-199.267M-141.354 290.015V232.101M-141.354 290.015H-199.267M-141.354 232.101V174.188M-141.354 232.101H-199.267M-141.354 174.188V116.275M-141.354 174.188H-199.267M-141.354 116.275V58.3615M-141.354 116.275H-199.267M-141.354 58.3615V0.448201M-141.354 58.3615H-199.267M-141.354 0.448201L-199.267 0.448215M-199.267 1158.71V1100.8M-199.267 1158.71H-257.18M-199.267 1100.8V1042.89M-199.267 1100.8H-257.18M-199.267 1042.89V984.974M-199.267 1042.89H-257.18M-199.267 984.974V927.061M-199.267 984.974H-257.18M-199.267 927.061V869.148M-199.267 927.061H-257.18M-199.267 869.148V811.235M-199.267 869.148H-257.18M-199.267 811.235V753.321M-199.267 811.235H-257.18M-199.267 753.321V695.408M-199.267 753.321H-257.18M-199.267 695.408V637.495M-199.267 695.408H-257.18M-199.267 637.495V579.581M-199.267 637.495H-257.18M-199.267 579.581V521.668M-199.267 579.581H-257.18M-199.267 521.668V463.755M-199.267 521.668H-257.18M-199.267 463.755V405.841M-199.267 463.755H-257.18M-199.267 405.841V347.928M-199.267 405.841H-257.18M-199.267 347.928L-199.267 290.015M-199.267 347.928H-257.18M-199.267 290.015V232.101M-199.267 290.015H-257.18M-199.267 232.101V174.188M-199.267 232.101H-257.18M-199.267 174.188V116.275M-199.267 174.188H-257.18M-199.267 116.275V58.3615M-199.267 116.275L-257.18 116.275M-199.267 58.3615V0.448215M-199.267 58.3615L-257.18 58.3616M-199.267 0.448215H-257.18M-257.18 1158.71V1100.8M-257.18 1158.71H-315.093V1100.8M-257.18 1100.8V1042.89M-257.18 1100.8H-315.093M-257.18 1042.89V984.974M-257.18 1042.89H-315.093M-257.18 984.974V927.061M-257.18 984.974H-315.093M-257.18 927.061V869.148M-257.18 927.061H-315.093M-257.18 869.148V811.235M-257.18 869.148H-315.093M-257.18 811.235V753.321M-257.18 811.235H-315.093M-257.18 753.321V695.408M-257.18 753.321H-315.093M-257.18 695.408V637.495M-257.18 695.408H-315.093M-257.18 637.495V579.581M-257.18 637.495H-315.093M-257.18 579.581V521.668M-257.18 579.581H-315.093M-257.18 521.668V463.755M-257.18 521.668H-315.093M-257.18 463.755V405.841M-257.18 463.755H-315.093M-257.18 405.841V347.928M-257.18 405.841H-315.093M-257.18 347.928V290.015M-257.18 347.928H-315.093M-257.18 290.015V232.101M-257.18 290.015H-315.093M-257.18 232.101V174.188M-257.18 232.101H-315.093M-257.18 174.188V116.275M-257.18 174.188H-315.093M-257.18 116.275V58.3616M-257.18 116.275H-315.093M-257.18 58.3616V0.448215M-257.18 58.3616H-315.093M-257.18 0.448215H-315.093V58.3616M-315.093 1100.8V1042.89M-315.093 1042.89V984.974M-315.093 984.974V927.061M-315.093 927.061V869.148M-315.093 869.148V811.235M-315.093 811.235V753.321M-315.093 753.321V695.408M-315.093 695.408V637.495M-315.093 637.495V579.581M-315.093 579.581V521.668M-315.093 521.668V463.755M-315.093 463.755V405.841M-315.093 405.841V347.928M-315.093 347.928V290.015M-315.093 290.015V232.101M-315.093 232.101V174.188M-315.093 174.188V116.275M-315.093 116.275V58.3616" stroke="url(#paint0_radial_150_1042)" stroke-opacity="0.2" stroke-width="0.723917"/>
<defs>
<radialGradient id="paint0_radial_150_1042" cx="0" cy="0" r="1" gradientUnits="userSpaceOnUse" gradientTransform="translate(959 579.581) rotate(-90) scale(579.133 1274.09)">
<stop offset="0.329443" stop-color="white"/>
<stop offset="0.869558" stop-color="white" stop-opacity="0"/>
</radialGradient>
</defs>
</svg>
