<svg width="1920" height="882" viewBox="0 0 1920 882" fill="none" xmlns="http://www.w3.org/2000/svg">
    <path d="M-1 164.975V607.95L27.275 688.425C78.75 835.6 84.55 848.65 109.925 865.325C141.825 887.8 190.4 887.075 244.05 864.6C266.525 855.175 293.35 845.025 303.5 842.125C313.65 839.225 331.775 832.7 343.375 826.9C355.7 821.825 428.925 794.275 506.5 766C584.075 737.725 658.025 710.175 669.625 705.1C681.95 699.3 704.425 691.325 720.375 686.25C736.325 681.175 753 674.65 756.625 671.75C760.975 668.85 788.525 657.975 818.25 647.825C847.975 637.675 895.825 620.275 923.375 610.125C951.65 599.25 993.7 584.025 1017.63 576.05C1041.55 568.075 1064.75 558.65 1068.38 555.75C1072.72 552.85 1098.83 542.7 1126.38 534C1154.65 525.3 1180.75 515.15 1184.38 512.25C1188.73 509.35 1204.68 502.825 1220.62 497.75C1236.58 492.675 1259.78 484.7 1271.38 479.625C1283.7 474.55 1356.93 447 1434.5 418.725C1512.08 389.725 1582.4 363.625 1590.38 360C1598.35 356.375 1663.6 331.725 1735.38 305.625C1807.15 279.525 1878.2 252.7 1893.43 246.175L1920.25 234.575V-22.075V-278H959.625H-1V164.975Z" fill="url(#paint0_linear_242_1056)"/>
    <defs>
    <linearGradient id="paint0_linear_242_1056" x1="-18.5904" y1="-224.886" x2="1542.56" y2="1102.76" gradientUnits="userSpaceOnUse">
    <stop stop-color="#07DEFD"/>
    <stop offset="1" stop-color="#1476FB"/>
    </linearGradient>
    </defs>
    </svg>
    