<svg width="1007" height="797" viewBox="0 0 1007 797" fill="none" xmlns="http://www.w3.org/2000/svg">
    <g filter="url(#filter0_d_150_4269)">
    <rect x="243" y="20" width="712" height="512" fill="#101828"/>
    </g>
    <rect x="215.5" y="20.5" width="767" height="511" rx="23.5" fill="white"/>
    <rect x="215.5" y="20.5" width="767" height="511" rx="23.5" stroke="#F2F4F7"/>
    <g filter="url(#filter1_d_150_4269)">
    <path d="M97.9186 120.253C97.9186 100.231 114.149 84 134.171 84H302.74C322.762 84 338.993 100.231 338.993 120.253V193.446C340.766 193.446 342.203 194.884 342.203 196.657V236.349C342.203 238.122 340.766 239.56 338.993 239.56V542.737C338.993 562.759 322.762 578.99 302.74 578.99H134.171C114.149 578.99 97.9186 562.759 97.9186 542.737V260.282C96.3168 260.282 95 258.983 95 257.381V224.073C95 222.471 96.3168 221.173 97.9186 221.173V213.876C96.3168 213.876 95 212.578 95 210.976V176.5C95 174.899 96.3168 173.6 97.9186 173.6V120.253Z" fill="#EEEEEE"/>
    </g>
    <path d="M154.538 94.5067H127.687C117.371 94.5067 109.008 102.87 109.008 113.186V549.804C109.008 560.12 117.371 568.483 127.687 568.483H309.222C319.538 568.483 327.901 560.12 327.901 549.804V113.186C327.901 102.87 319.538 94.5067 309.222 94.5067H282.955V97.4253C282.955 103.873 277.728 109.1 271.28 109.1H166.212C159.764 109.1 154.538 103.873 154.538 97.4253V94.5067Z" fill="white"/>
    <rect opacity="0.4" x="195.98" y="94.5071" width="50.1994" height="4.66971" rx="2.33486" fill="#CCCCCC"/>
    <rect opacity="0.5" x="254.352" y="91.5884" width="10.5069" height="10.5069" rx="5.25343" fill="#DDDDDD"/>
    <rect opacity="0.5" x="256.688" y="93.9233" width="5.83714" height="5.83714" rx="2.91857" fill="white"/>
    <rect opacity="0.5" x="167.963" y="94.5072" width="4.66971" height="4.66971" rx="2.33486" fill="#CCCCCC"/>
    <defs>
    <filter id="filter0_d_150_4269" x="191" y="0" width="816" height="616" filterUnits="userSpaceOnUse" color-interpolation-filters="sRGB">
    <feFlood flood-opacity="0" result="BackgroundImageFix"/>
    <feColorMatrix in="SourceAlpha" type="matrix" values="0 0 0 0 0 0 0 0 0 0 0 0 0 0 0 0 0 0 127 0" result="hardAlpha"/>
    <feMorphology radius="12" operator="erode" in="SourceAlpha" result="effect1_dropShadow_150_4269"/>
    <feOffset dy="32"/>
    <feGaussianBlur stdDeviation="32"/>
    <feColorMatrix type="matrix" values="0 0 0 0 0.0625882 0 0 0 0 0.0926346 0 0 0 0 0.15702 0 0 0 0.14 0"/>
    <feBlend mode="normal" in2="BackgroundImageFix" result="effect1_dropShadow_150_4269"/>
    <feBlend mode="normal" in="SourceGraphic" in2="effect1_dropShadow_150_4269" result="shape"/>
    </filter>
    <filter id="filter1_d_150_4269" x="0.742805" y="11.4945" width="537.225" height="785.012" filterUnits="userSpaceOnUse" color-interpolation-filters="sRGB">
    <feFlood flood-opacity="0" result="BackgroundImageFix"/>
    <feColorMatrix in="SourceAlpha" type="matrix" values="0 0 0 0 0 0 0 0 0 0 0 0 0 0 0 0 0 0 127 0" result="hardAlpha"/>
    <feOffset dx="50.7539" dy="72.5055"/>
    <feGaussianBlur stdDeviation="72.5055"/>
    <feColorMatrix type="matrix" values="0 0 0 0 0 0 0 0 0 0 0 0 0 0 0 0 0 0 0.08 0"/>
    <feBlend mode="normal" in2="BackgroundImageFix" result="effect1_dropShadow_150_4269"/>
    <feBlend mode="normal" in="SourceGraphic" in2="effect1_dropShadow_150_4269" result="shape"/>
    </filter>
    </defs>
    </svg>
    