<svg width="954" height="391" viewBox="0 0 954 391" fill="none" xmlns="http://www.w3.org/2000/svg">
    <g filter="url(#filter0_d_150_1312)">
    <g clip-path="url(#clip0_150_1312)">
    <rect x="40.856" y="33" width="872.29" height="484" rx="6.05757" fill="white"/>
    <g clip-path="url(#clip1_150_1312)">
    <rect width="872.29" height="25.4418" transform="translate(40.856 33)" fill="#DFE1E5"/>
    <rect x="53.5759" y="42.692" width="7.26909" height="7.26909" rx="3.63454" fill="#EC6B5E"/>
    <rect x="65.691" y="42.692" width="7.26909" height="7.26909" rx="3.63454" fill="#F4BF4F"/>
    <rect x="77.8063" y="42.692" width="7.26909" height="7.26909" rx="3.63454" fill="#61C453"/>
    <g clip-path="url(#clip2_150_1312)">
    <g clip-path="url(#clip3_150_1312)">
    <path d="M93.5562 42.6922C93.5562 40.0158 95.7258 37.8462 98.4022 37.8462H234.092C236.768 37.8462 238.938 40.0158 238.938 42.6922V58.4419H93.5562V42.6922Z" fill="white"/>
    <rect x="233.479" y="37.8459" width="31.4111" height="24.2722" fill="url(#paint0_linear_150_1312)"/>
    <path d="M102.522 50.298L101.111 45.9874V50.298H100.159V45.2096H101.773L103.03 49.1567L104.295 45.2096H105.865V50.298H104.913V45.9438L103.496 50.298H102.522ZM108.566 50.3779C108.29 50.3779 108.031 50.3319 107.788 50.2398C107.546 50.1477 107.335 50.0169 107.156 49.8473C106.982 49.6728 106.841 49.4645 106.734 49.2221C106.633 48.975 106.582 48.6988 106.582 48.3935C106.582 48.0979 106.633 47.8313 106.734 47.5939C106.841 47.3516 106.984 47.1456 107.163 46.976C107.343 46.8064 107.553 46.6755 107.796 46.5835C108.038 46.4914 108.295 46.4454 108.566 46.4454C108.838 46.4454 109.095 46.4914 109.337 46.5835C109.579 46.6755 109.787 46.8064 109.962 46.976C110.141 47.1408 110.282 47.3443 110.384 47.5866C110.49 47.8241 110.543 48.093 110.543 48.3935C110.543 48.6939 110.49 48.9677 110.384 49.2149C110.282 49.4572 110.141 49.6656 109.962 49.84C109.783 50.0096 109.572 50.1429 109.33 50.2398C109.092 50.3319 108.838 50.3779 108.566 50.3779ZM108.566 49.5929C108.867 49.5929 109.111 49.4838 109.3 49.2658C109.489 49.0428 109.584 48.7521 109.584 48.3935C109.584 48.0542 109.489 47.7756 109.3 47.5575C109.111 47.3395 108.867 47.2304 108.566 47.2304C108.261 47.2304 108.014 47.3395 107.825 47.5575C107.636 47.7708 107.541 48.0494 107.541 48.3935C107.541 48.7472 107.636 49.0356 107.825 49.2585C108.014 49.4814 108.261 49.5929 108.566 49.5929ZM114.116 49.542V50.298H110.939V49.4911L112.996 47.2886H110.983V46.5326H114.087V47.3395L112.044 49.542H114.116ZM116.572 50.298V45.2096H117.575V47.2304H120.017V45.2096H121.013V50.298H120.017V48.0736H117.575V50.298H116.572ZM124.355 50.298L124.34 49.8328C124.219 50.0024 124.057 50.1356 123.853 50.2326C123.655 50.3295 123.417 50.3779 123.141 50.3779C122.967 50.3779 122.797 50.3537 122.632 50.3052C122.467 50.2568 122.32 50.1841 122.189 50.0872C122.063 49.9902 121.961 49.8691 121.883 49.7237C121.806 49.5783 121.767 49.4087 121.767 49.2149C121.767 48.8127 121.917 48.5267 122.218 48.3571C122.523 48.1827 122.923 48.0567 123.417 47.9791L124.275 47.841V47.7974C124.275 47.56 124.212 47.3928 124.086 47.2958C123.965 47.1941 123.793 47.1432 123.57 47.1432C123.347 47.1432 123.168 47.1941 123.032 47.2958C122.901 47.3976 122.816 47.5454 122.778 47.7393H121.891C121.944 47.3419 122.131 47.0269 122.45 46.7943C122.77 46.5617 123.156 46.4454 123.606 46.4454C124.076 46.4454 124.459 46.552 124.755 46.7652C125.05 46.9784 125.196 47.3443 125.191 47.8628L125.176 49.5202C125.176 49.5832 125.179 49.6728 125.184 49.7891C125.188 49.9006 125.198 50.0702 125.213 50.298H124.355ZM122.676 49.1713C122.676 49.336 122.739 49.462 122.865 49.5493C122.996 49.6316 123.158 49.6728 123.352 49.6728C123.604 49.6728 123.819 49.5977 123.999 49.4475C124.183 49.2924 124.275 49.0647 124.275 48.7642V48.5025C123.713 48.5752 123.306 48.6552 123.054 48.7424C122.802 48.8248 122.676 48.9677 122.676 49.1713ZM129.867 48.3862C129.867 48.706 129.819 48.992 129.722 49.244C129.63 49.4911 129.504 49.6995 129.344 49.8691C129.189 50.0339 129.004 50.1599 128.791 50.2471C128.578 50.3343 128.355 50.3779 128.122 50.3779C127.851 50.3779 127.616 50.3222 127.417 50.2107C127.223 50.0944 127.073 49.9418 126.967 49.7528V50.298H126.051V45.0642H126.981V47.0123C127.088 46.8427 127.238 46.707 127.432 46.6053C127.626 46.4987 127.858 46.4454 128.13 46.4454C128.367 46.4454 128.59 46.489 128.798 46.5762C129.012 46.6586 129.196 46.7822 129.351 46.9469C129.511 47.1068 129.637 47.308 129.729 47.5503C129.821 47.7926 129.867 48.0712 129.867 48.3862ZM127.941 49.6074C128.212 49.6074 128.44 49.5008 128.624 49.2876C128.813 49.0743 128.907 48.7739 128.907 48.3862C128.907 48.0082 128.813 47.7199 128.624 47.5212C128.44 47.3176 128.212 47.2159 127.941 47.2159C127.66 47.2159 127.427 47.3201 127.243 47.5285C127.059 47.732 126.967 48.0179 126.967 48.3862C126.967 48.769 127.061 49.0695 127.25 49.2876C127.439 49.5008 127.669 49.6074 127.941 49.6074ZM134.09 49.1931C134.031 49.4015 133.939 49.5808 133.813 49.731C133.692 49.8764 133.549 49.9975 133.385 50.0944C133.22 50.1914 133.04 50.2616 132.847 50.3052C132.658 50.3537 132.466 50.3779 132.272 50.3779C132.006 50.3779 131.754 50.3343 131.516 50.2471C131.279 50.155 131.071 50.0242 130.891 49.8546C130.712 49.6801 130.569 49.4693 130.462 49.2221C130.361 48.975 130.31 48.6964 130.31 48.3862C130.31 48.0906 130.363 47.8241 130.47 47.5866C130.576 47.3443 130.717 47.1383 130.891 46.9687C131.071 46.7991 131.277 46.6707 131.509 46.5835C131.747 46.4914 131.989 46.4454 132.236 46.4454C132.488 46.4454 132.728 46.489 132.956 46.5762C133.188 46.6634 133.389 46.7919 133.559 46.9615C133.733 47.1262 133.872 47.337 133.973 47.5939C134.075 47.8459 134.126 48.1391 134.126 48.4734V48.677H131.255C131.289 48.9726 131.405 49.2076 131.604 49.3821C131.802 49.5565 132.035 49.6438 132.301 49.6438C132.476 49.6438 132.643 49.6098 132.803 49.542C132.963 49.4741 133.087 49.3578 133.174 49.1931H134.09ZM132.221 47.1723C131.974 47.1723 131.759 47.2474 131.575 47.3976C131.39 47.5478 131.281 47.7538 131.247 48.0155H133.166C133.147 47.7635 133.05 47.56 132.876 47.4049C132.701 47.2498 132.483 47.1723 132.221 47.1723ZM135.716 48.2699V50.298H134.786V46.5326H135.694V47.1068C135.733 47.0438 135.777 46.9808 135.825 46.9178C135.874 46.8548 135.929 46.7991 135.992 46.7507C136.104 46.6634 136.218 46.6004 136.334 46.5617C136.45 46.5229 136.591 46.5035 136.756 46.5035C136.804 46.5035 136.85 46.5059 136.894 46.5108C136.942 46.5156 136.984 46.5205 137.017 46.5253V47.4049C136.925 47.4 136.853 47.3976 136.799 47.3976C136.746 47.3928 136.695 47.3903 136.647 47.3903C136.545 47.3903 136.438 47.4025 136.327 47.4267C136.22 47.4461 136.121 47.4897 136.029 47.5575C135.937 47.6205 135.862 47.7102 135.803 47.8265C135.745 47.9379 135.716 48.0857 135.716 48.2699ZM143.58 45.2096L141.727 50.298H140.622L138.768 45.2096H139.83L141.203 49.1785L142.57 45.2096H143.58ZM146.05 45.2096V50.298H145.069V46.3872L143.826 47.1287V46.1691L145.272 45.2096H146.05ZM148.696 48.6334V47.7756H151.087V48.6334H148.696ZM157.22 50.298L156.783 49.1131H154.595L154.159 50.298H153.149L155.141 45.2096H156.289L158.274 50.298H157.22ZM154.901 48.2917H156.478L155.693 46.1691L154.901 48.2917ZM161.384 50.298V49.7673C161.277 49.9515 161.125 50.0993 160.926 50.2107C160.727 50.3222 160.497 50.3779 160.236 50.3779C159.998 50.3779 159.773 50.3367 159.56 50.2544C159.351 50.1671 159.167 50.0411 159.007 49.8764C158.847 49.7068 158.719 49.4984 158.622 49.2512C158.53 48.9992 158.484 48.7109 158.484 48.3862C158.484 48.0761 158.532 47.7998 158.629 47.5575C158.726 47.3152 158.854 47.1117 159.014 46.9469C159.179 46.7822 159.368 46.6586 159.581 46.5762C159.795 46.489 160.015 46.4454 160.243 46.4454C160.505 46.4454 160.73 46.4962 160.919 46.598C161.113 46.6949 161.263 46.8258 161.37 46.9905V45.0642H162.307V50.298H161.384ZM160.417 49.6074C160.684 49.6074 160.912 49.5008 161.101 49.2876C161.294 49.0695 161.391 48.769 161.391 48.3862C161.391 48.0179 161.297 47.732 161.108 47.5285C160.924 47.3201 160.694 47.2159 160.417 47.2159C160.136 47.2159 159.904 47.3201 159.719 47.5285C159.535 47.7368 159.443 48.0227 159.443 48.3862C159.443 48.769 159.535 49.0695 159.719 49.2876C159.904 49.5008 160.136 49.6074 160.417 49.6074ZM164.138 48.2045V50.298H163.208V46.5326H164.117V46.976C164.228 46.8064 164.378 46.6755 164.567 46.5835C164.756 46.4914 164.974 46.4454 165.221 46.4454C165.444 46.4454 165.658 46.4962 165.861 46.598C166.065 46.6949 166.227 46.8524 166.348 47.0705C166.474 46.867 166.644 46.7119 166.857 46.6053C167.075 46.4987 167.315 46.4454 167.577 46.4454C167.761 46.4454 167.935 46.472 168.1 46.5253C168.27 46.5786 168.417 46.6634 168.543 46.7797C168.669 46.896 168.769 47.0487 168.841 47.2377C168.919 47.4218 168.958 47.6448 168.958 47.9064V50.298H168.02V48.0591C168.02 47.7877 167.952 47.5842 167.817 47.4485C167.681 47.3128 167.514 47.245 167.315 47.245C167.116 47.245 166.937 47.3273 166.777 47.4921C166.622 47.652 166.544 47.8895 166.544 48.2045V50.298H165.614V48.0591C165.614 47.7877 165.546 47.5842 165.41 47.4485C165.275 47.3128 165.108 47.245 164.909 47.245C164.71 47.245 164.531 47.3249 164.371 47.4848C164.216 47.6448 164.138 47.8846 164.138 48.2045ZM169.801 45.9365V45.0642H170.746V45.9365H169.801ZM169.808 50.298V46.5326H170.739V50.298H169.808ZM172.575 48.2554V50.298H171.645V46.5326H172.561V46.9833C172.682 46.8137 172.839 46.6828 173.033 46.5907C173.232 46.4938 173.45 46.4454 173.688 46.4454C174.099 46.4454 174.429 46.5738 174.676 46.8306C174.928 47.0875 175.054 47.4606 175.054 47.9501V50.298H174.124V48.0882C174.124 47.8313 174.058 47.6278 173.927 47.4776C173.797 47.3225 173.612 47.245 173.375 47.245C173.162 47.245 172.975 47.3298 172.815 47.4994C172.655 47.6641 172.575 47.9161 172.575 48.2554ZM177.684 50.298V45.2096H179.741C180.347 45.2096 180.807 45.3598 181.122 45.6603C181.442 45.9608 181.602 46.3533 181.602 46.8379C181.602 47.3322 181.44 47.7296 181.115 48.03C180.795 48.3305 180.335 48.4807 179.734 48.4807H178.68V50.298H177.684ZM178.68 47.6593H179.632C179.947 47.6593 180.184 47.5866 180.344 47.4412C180.509 47.291 180.592 47.0923 180.592 46.8452C180.592 46.6029 180.509 46.4066 180.344 46.2564C180.18 46.1061 179.942 46.031 179.632 46.031H178.68V47.6593ZM184.495 50.298L184.48 49.8328C184.359 50.0024 184.197 50.1356 183.993 50.2326C183.794 50.3295 183.557 50.3779 183.281 50.3779C183.106 50.3779 182.937 50.3537 182.772 50.3052C182.607 50.2568 182.459 50.1841 182.328 50.0872C182.202 49.9902 182.101 49.8691 182.023 49.7237C181.946 49.5783 181.907 49.4087 181.907 49.2149C181.907 48.8127 182.057 48.5267 182.358 48.3571C182.663 48.1827 183.063 48.0567 183.557 47.9791L184.415 47.841V47.7974C184.415 47.56 184.352 47.3928 184.226 47.2958C184.105 47.1941 183.933 47.1432 183.71 47.1432C183.487 47.1432 183.307 47.1941 183.172 47.2958C183.041 47.3976 182.956 47.5454 182.917 47.7393H182.03C182.084 47.3419 182.27 47.0269 182.59 46.7943C182.91 46.5617 183.295 46.4454 183.746 46.4454C184.216 46.4454 184.599 46.552 184.894 46.7652C185.19 46.9784 185.335 47.3443 185.331 47.8628L185.316 49.5202C185.316 49.5832 185.319 49.6728 185.323 49.7891C185.328 49.9006 185.338 50.0702 185.352 50.298H184.495ZM182.816 49.1713C182.816 49.336 182.879 49.462 183.005 49.5493C183.135 49.6316 183.298 49.6728 183.492 49.6728C183.744 49.6728 183.959 49.5977 184.138 49.4475C184.323 49.2924 184.415 49.0647 184.415 48.7642V48.5025C183.853 48.5752 183.446 48.6552 183.194 48.7424C182.942 48.8248 182.816 48.9677 182.816 49.1713ZM187.121 48.2554V50.298H186.19V46.5326H187.106V46.9833C187.228 46.8137 187.385 46.6828 187.579 46.5907C187.778 46.4938 187.996 46.4454 188.233 46.4454C188.645 46.4454 188.975 46.5738 189.222 46.8306C189.474 47.0875 189.6 47.4606 189.6 47.9501V50.298H188.669V48.0882C188.669 47.8313 188.604 47.6278 188.473 47.4776C188.342 47.3225 188.158 47.245 187.921 47.245C187.707 47.245 187.521 47.3298 187.361 47.4994C187.201 47.6641 187.121 47.9161 187.121 48.2554ZM193.995 49.1931C193.937 49.4015 193.845 49.5808 193.719 49.731C193.598 49.8764 193.455 49.9975 193.29 50.0944C193.125 50.1914 192.946 50.2616 192.752 50.3052C192.563 50.3537 192.372 50.3779 192.178 50.3779C191.911 50.3779 191.659 50.3343 191.422 50.2471C191.184 50.155 190.976 50.0242 190.797 49.8546C190.617 49.6801 190.474 49.4693 190.368 49.2221C190.266 48.975 190.215 48.6964 190.215 48.3862C190.215 48.0906 190.269 47.8241 190.375 47.5866C190.482 47.3443 190.622 47.1383 190.797 46.9687C190.976 46.7991 191.182 46.6707 191.415 46.5835C191.652 46.4914 191.894 46.4454 192.142 46.4454C192.394 46.4454 192.633 46.489 192.861 46.5762C193.094 46.6634 193.295 46.7919 193.465 46.9615C193.639 47.1262 193.777 47.337 193.879 47.5939C193.981 47.8459 194.031 48.1391 194.031 48.4734V48.677H191.16C191.194 48.9726 191.31 49.2076 191.509 49.3821C191.708 49.5565 191.94 49.6438 192.207 49.6438C192.381 49.6438 192.549 49.6098 192.709 49.542C192.868 49.4741 192.992 49.3578 193.079 49.1931H193.995ZM192.127 47.1723C191.88 47.1723 191.664 47.2474 191.48 47.3976C191.296 47.5478 191.187 47.7538 191.153 48.0155H193.072C193.053 47.7635 192.956 47.56 192.781 47.4049C192.607 47.2498 192.389 47.1723 192.127 47.1723ZM194.691 50.298V45.0642H195.622V50.298H194.691Z" fill="#00184C"/>
    </g>
    </g>
    <path d="M255.899 45.1152V48.144M255.899 51.1728V48.144M255.899 48.144H252.87M255.899 48.144H258.928" stroke="#3D4043" stroke-width="0.908636" stroke-linecap="round" stroke-linejoin="round"/>
    <path d="M897.396 46.9324L899.819 49.3554L902.242 46.9324" stroke="#3D4043" stroke-width="0.908636" stroke-linecap="round" stroke-linejoin="round"/>
    </g>
    <rect width="872.29" height="21.8073" transform="translate(40.856 58.4418)" fill="white"/>
    <path d="M57.8155 69.3454H50.5464M50.5464 69.3454L54.1809 65.7108M50.5464 69.3454L54.1809 72.9799" stroke="#606367" stroke-width="0.908636" stroke-linecap="round" stroke-linejoin="round"/>
    <path d="M69.9314 69.3454H77.2004M77.2004 69.3454L73.5659 65.7108M77.2004 69.3454L73.5659 72.9799" stroke="#606367" stroke-width="0.908636" stroke-linecap="round" stroke-linejoin="round"/>
    <path fill-rule="evenodd" clip-rule="evenodd" d="M90.0742 69.3452C90.0742 67.7561 91.3624 66.4678 92.9515 66.4678C93.9002 66.4678 94.7423 66.927 95.2667 67.6362L94.1634 68.7395H97.1922V65.7108L95.9146 66.9884C95.2212 66.1179 94.1519 65.5592 92.9515 65.5592C90.8606 65.5592 89.1655 67.2542 89.1655 69.3452C89.1655 71.4361 90.8606 73.1312 92.9515 73.1312C94.4234 73.1312 95.6983 72.2911 96.3244 71.0664C96.4386 70.843 96.3501 70.5693 96.1267 70.4551C95.9033 70.3408 95.6296 70.4294 95.5154 70.6528C95.0385 71.5856 94.069 72.2225 92.9515 72.2225C91.3624 72.2225 90.0742 70.9343 90.0742 69.3452Z" fill="#606367"/>
    <rect x="106.277" y="60.8647" width="741.447" height="16.9612" rx="8.4806" fill="#F1F3F4"/>
    <path fill-rule="evenodd" clip-rule="evenodd" d="M117.181 66.3165C116.345 66.3165 115.667 66.9945 115.667 67.8309V68.4367H115.364C115.03 68.4367 114.758 68.7079 114.758 69.0424V72.0712C114.758 72.4058 115.03 72.677 115.364 72.677H118.999C119.333 72.677 119.604 72.4058 119.604 72.0712V69.0424C119.604 68.7079 119.333 68.4367 118.999 68.4367H118.696V67.8309C118.696 66.9945 118.018 66.3165 117.181 66.3165ZM118.09 68.4367V67.8309C118.09 67.3291 117.683 66.9223 117.181 66.9223C116.68 66.9223 116.273 67.3291 116.273 67.8309V68.4367H118.09Z" fill="#606367"/>
    <path fill-rule="evenodd" clip-rule="evenodd" d="M817.703 65.4429C817.555 65.2951 817.316 65.2951 817.168 65.4429L815.956 66.6544C815.808 66.8023 815.808 67.042 815.956 67.1899C816.104 67.3377 816.344 67.3377 816.492 67.1899L817.057 66.6246V70.5567C817.057 70.7658 817.226 70.9353 817.435 70.9353C817.645 70.9353 817.814 70.7658 817.814 70.5567V66.6246L818.379 67.1899C818.527 67.3377 818.767 67.3377 818.915 67.1899C819.063 67.042 819.063 66.8023 818.915 66.6544L817.703 65.4429ZM814.785 69.0423C814.785 68.7496 815.023 68.5123 815.315 68.5123H815.921C816.13 68.5123 816.3 68.3428 816.3 68.1337C816.3 67.9246 816.13 67.7551 815.921 67.7551H815.315C814.604 67.7551 814.028 68.3314 814.028 69.0423V72.6768C814.028 73.3878 814.604 73.9641 815.315 73.9641H819.556C820.267 73.9641 820.843 73.3878 820.843 72.6768V69.0423C820.843 68.3314 820.267 67.7551 819.556 67.7551H818.95C818.741 67.7551 818.571 67.9246 818.571 68.1337C818.571 68.3428 818.741 68.5123 818.95 68.5123H819.556C819.848 68.5123 820.086 68.7496 820.086 69.0423V72.6768C820.086 72.9696 819.848 73.2069 819.556 73.2069H815.315C815.023 73.2069 814.785 72.9696 814.785 72.6768V69.0423Z" fill="#626365"/>
    <path fill-rule="evenodd" clip-rule="evenodd" d="M836.446 65.638C836.564 65.2753 837.077 65.2753 837.195 65.638L837.98 68.0528H840.519C840.9 68.0528 841.059 68.5409 840.75 68.7651L838.696 70.2575L839.481 72.6722C839.599 73.035 839.184 73.3367 838.875 73.1125L836.821 71.6201L834.767 73.1125C834.458 73.3367 834.043 73.035 834.161 72.6722L834.945 70.2575L832.891 68.7651C832.583 68.5409 832.741 68.0528 833.123 68.0528H835.662L836.446 65.638ZM836.821 66.9359L836.3 68.5379C836.248 68.7002 836.096 68.81 835.926 68.81H834.241L835.604 69.8001C835.742 69.9004 835.8 70.0781 835.747 70.2403L835.227 71.8424L836.589 70.8523C836.727 70.752 836.914 70.752 837.052 70.8523L838.415 71.8424L837.895 70.2403C837.842 70.0781 837.9 69.9004 838.038 69.8001L839.4 68.81H837.716C837.545 68.81 837.394 68.7002 837.341 68.5379L836.821 66.9359Z" fill="#626365"/>
    <path d="M128.298 69.9805V72.4993H127.5V68.1063H128.281V68.6915C128.405 68.4823 128.577 68.3155 128.798 68.1911C129.024 68.0667 129.29 68.0045 129.595 68.0045C129.861 68.0045 130.115 68.0667 130.358 68.1911C130.601 68.3155 130.791 68.5162 130.927 68.7932C131.062 68.5501 131.254 68.3579 131.503 68.2166C131.752 68.0752 132.035 68.0045 132.351 68.0045C132.56 68.0045 132.761 68.0356 132.953 68.0978C133.146 68.1544 133.312 68.2505 133.454 68.3862C133.601 68.5219 133.717 68.6971 133.801 68.912C133.886 69.1212 133.929 69.3784 133.929 69.6837V72.4993H133.131V69.794C133.131 69.4265 133.038 69.1523 132.852 68.9713C132.671 68.7904 132.442 68.7 132.165 68.7C131.888 68.7 131.642 68.8102 131.427 69.0307C131.218 69.2512 131.113 69.5678 131.113 69.9805V72.4993H130.316V69.794C130.316 69.4265 130.223 69.1523 130.036 68.9713C129.855 68.7904 129.626 68.7 129.349 68.7C129.072 68.7 128.826 68.8102 128.611 69.0307C128.402 69.2455 128.298 69.5622 128.298 69.9805ZM137.053 72.5926C136.748 72.5926 136.459 72.5388 136.188 72.4314C135.917 72.3183 135.679 72.1629 135.476 71.965C135.278 71.7671 135.119 71.524 135.001 71.2357C134.888 70.9473 134.831 70.6251 134.831 70.2689C134.831 69.9296 134.888 69.6215 135.001 69.3445C135.119 69.0618 135.278 68.8243 135.476 68.6321C135.679 68.4342 135.917 68.2816 136.188 68.1742C136.459 68.0611 136.748 68.0045 137.053 68.0045C137.364 68.0045 137.655 68.0583 137.927 68.1657C138.198 68.2731 138.433 68.4258 138.63 68.6236C138.828 68.8159 138.984 69.0533 139.097 69.336C139.216 69.6187 139.275 69.9296 139.275 70.2689C139.275 70.6194 139.216 70.9388 139.097 71.2272C138.984 71.5155 138.825 71.7615 138.622 71.965C138.424 72.1629 138.189 72.3183 137.918 72.4314C137.647 72.5388 137.358 72.5926 137.053 72.5926ZM137.053 71.8887C137.46 71.8887 137.797 71.7388 138.062 71.4392C138.328 71.1395 138.461 70.7494 138.461 70.2689C138.461 69.8109 138.328 69.4378 138.062 69.1494C137.797 68.8554 137.46 68.7084 137.053 68.7084C136.646 68.7084 136.31 68.8554 136.044 69.1494C135.778 69.4378 135.645 69.8109 135.645 70.2689C135.645 70.7438 135.778 71.1339 136.044 71.4392C136.31 71.7388 136.646 71.8887 137.053 71.8887ZM143.411 71.8208V72.4993H139.858V71.7615L142.461 68.7848H139.908V68.1063H143.377V68.8441L140.774 71.8208H143.411ZM145.151 69.9805V72.4993H144.354V68.1063H145.134V68.6915C145.259 68.4823 145.431 68.3155 145.651 68.1911C145.878 68.0667 146.143 68.0045 146.449 68.0045C146.714 68.0045 146.969 68.0667 147.212 68.1911C147.455 68.3155 147.644 68.5162 147.78 68.7932C147.916 68.5501 148.108 68.3579 148.357 68.2166C148.606 68.0752 148.888 68.0045 149.205 68.0045C149.414 68.0045 149.615 68.0356 149.807 68.0978C149.999 68.1544 150.166 68.2505 150.307 68.3862C150.454 68.5219 150.57 68.6971 150.655 68.912C150.74 69.1212 150.782 69.3784 150.782 69.6837V72.4993H149.985V69.794C149.985 69.4265 149.892 69.1523 149.705 68.9713C149.524 68.7904 149.295 68.7 149.018 68.7C148.741 68.7 148.495 68.8102 148.28 69.0307C148.071 69.2512 147.967 69.5678 147.967 69.9805V72.4993H147.169V69.794C147.169 69.4265 147.076 69.1523 146.89 68.9713C146.709 68.7904 146.48 68.7 146.203 68.7C145.926 68.7 145.68 68.8102 145.465 69.0307C145.256 69.2455 145.151 69.5622 145.151 69.9805ZM155.908 71.2441C155.846 71.4703 155.744 71.6682 155.603 71.8378C155.467 72.0074 155.309 72.1487 155.128 72.2618C154.947 72.3749 154.749 72.4569 154.534 72.5077C154.319 72.5643 154.102 72.5926 153.881 72.5926C153.581 72.5926 153.296 72.5388 153.025 72.4314C152.759 72.324 152.527 72.1714 152.329 71.9735C152.131 71.7699 151.973 71.524 151.854 71.2357C151.741 70.9473 151.685 70.6251 151.685 70.2689C151.685 69.9183 151.744 69.6046 151.863 69.3275C151.981 69.0448 152.14 68.8074 152.338 68.6152C152.536 68.4173 152.765 68.2674 153.025 68.1657C153.285 68.0583 153.553 68.0045 153.83 68.0045C154.107 68.0045 154.373 68.0554 154.627 68.1572C154.887 68.2533 155.114 68.4003 155.306 68.5982C155.504 68.7904 155.659 69.0335 155.772 69.3275C155.891 69.6159 155.95 69.9523 155.95 70.3367V70.5318H152.499C152.538 70.9445 152.688 71.2781 152.948 71.5325C153.214 71.7869 153.533 71.9141 153.907 71.9141C154.167 71.9141 154.404 71.8632 154.619 71.7615C154.834 71.654 154.998 71.4816 155.111 71.2441H155.908ZM153.813 68.6745C153.474 68.6745 153.177 68.7848 152.923 69.0053C152.674 69.2201 152.53 69.5141 152.49 69.8872H155.119C155.097 69.5197 154.961 69.2258 154.712 69.0053C154.469 68.7848 154.169 68.6745 153.813 68.6745ZM160.09 72.4993V71.8039C159.965 72.0244 159.776 72.2109 159.521 72.3636C159.273 72.5162 158.984 72.5926 158.656 72.5926C158.379 72.5926 158.116 72.5417 157.868 72.4399C157.619 72.3381 157.401 72.1911 157.215 71.9989C157.034 71.801 156.887 71.5579 156.774 71.2696C156.666 70.9756 156.613 70.642 156.613 70.2689C156.613 69.9127 156.669 69.5932 156.782 69.3106C156.895 69.0279 157.045 68.7904 157.232 68.5982C157.418 68.406 157.636 68.259 157.885 68.1572C158.133 68.0554 158.391 68.0045 158.656 68.0045C158.99 68.0045 159.281 68.0752 159.53 68.2166C159.779 68.3523 159.965 68.5219 160.09 68.7254V66.3932H160.887V72.4993H160.09ZM158.775 71.9141C158.95 71.9141 159.12 71.8774 159.284 71.8039C159.448 71.7304 159.589 71.6258 159.708 71.4901C159.827 71.3487 159.923 71.1763 159.996 70.9728C160.07 70.7636 160.107 70.5289 160.107 70.2689C160.107 69.76 159.974 69.3699 159.708 69.0985C159.448 68.8215 159.137 68.683 158.775 68.683C158.391 68.683 158.071 68.8243 157.817 69.107C157.568 69.3897 157.444 69.777 157.444 70.2689C157.444 70.7777 157.568 71.1791 157.817 71.4731C158.071 71.7671 158.391 71.9141 158.775 71.9141ZM165.722 68.1063L163.331 74.1106H162.516L163.297 72.2194L161.524 68.1063H162.381L163.687 71.2781L164.899 68.1063H165.722ZM169.091 72.4993L169.082 71.8378C168.947 72.0639 168.757 72.2477 168.514 72.389C168.271 72.5247 167.974 72.5926 167.624 72.5926C167.426 72.5926 167.231 72.5643 167.039 72.5077C166.846 72.4569 166.677 72.3777 166.53 72.2703C166.383 72.1572 166.264 72.0187 166.174 71.8547C166.083 71.6851 166.038 71.4901 166.038 71.2696C166.038 70.7947 166.23 70.4583 166.615 70.2604C166.999 70.0569 167.494 69.907 168.099 69.8109L169.032 69.6583V69.5735C169.032 69.2455 168.941 69.0109 168.76 68.8696C168.585 68.7226 168.345 68.6491 168.039 68.6491C167.751 68.6491 167.511 68.7197 167.318 68.8611C167.126 69.0024 167.005 69.2031 166.954 69.4632H166.174C166.23 69.0166 166.436 68.6632 166.793 68.4031C167.149 68.1374 167.573 68.0045 168.065 68.0045C168.314 68.0045 168.545 68.0328 168.76 68.0894C168.981 68.1459 169.167 68.2364 169.32 68.3607C169.473 68.4851 169.591 68.6491 169.676 68.8526C169.767 69.0561 169.812 69.3049 169.812 69.5989L169.795 71.5834C169.795 71.6512 169.798 71.7501 169.803 71.8802C169.809 72.0102 169.82 72.2166 169.837 72.4993H169.091ZM166.827 71.2357C166.827 71.4618 166.917 71.6371 167.098 71.7615C167.279 71.8802 167.502 71.9395 167.768 71.9395C168.118 71.9395 168.415 71.8293 168.658 71.6088C168.907 71.3883 169.032 71.0717 169.032 70.659V70.2943C168.257 70.3904 167.694 70.5007 167.344 70.6251C166.999 70.7438 166.827 70.9473 166.827 71.2357ZM170.971 72.4993V71.4731H171.895V72.4993H170.971ZM174.841 72.5926C174.542 72.5926 174.259 72.5388 173.993 72.4314C173.733 72.3183 173.507 72.16 173.315 71.9565C173.123 71.753 172.97 71.5099 172.857 71.2272C172.744 70.9388 172.687 70.6194 172.687 70.2689C172.687 69.9353 172.744 69.63 172.857 69.353C172.976 69.0759 173.131 68.8385 173.323 68.6406C173.521 68.4371 173.75 68.2816 174.01 68.1742C174.276 68.0611 174.559 68.0045 174.858 68.0045C175.107 68.0045 175.345 68.0441 175.571 68.1233C175.803 68.1968 176.006 68.3042 176.181 68.4455C176.357 68.5869 176.504 68.7565 176.622 68.9544C176.741 69.1523 176.815 69.3699 176.843 69.6074H176.054C175.981 69.3303 175.834 69.1127 175.613 68.9544C175.393 68.7904 175.138 68.7084 174.85 68.7084C174.46 68.7084 174.138 68.8554 173.883 69.1494C173.629 69.4378 173.502 69.8109 173.502 70.2689C173.502 70.7268 173.629 71.1113 173.883 71.4222C174.138 71.7332 174.46 71.8887 174.85 71.8887C175.133 71.8887 175.381 71.8095 175.596 71.6512C175.817 71.4929 175.969 71.2668 176.054 70.9728H176.843C176.803 71.2215 176.721 71.4477 176.597 71.6512C176.478 71.8547 176.328 72.0272 176.147 72.1685C175.967 72.3042 175.763 72.4088 175.537 72.4823C175.316 72.5558 175.085 72.5926 174.841 72.5926ZM179.671 72.5926C179.366 72.5926 179.078 72.5388 178.806 72.4314C178.535 72.3183 178.298 72.1629 178.094 71.965C177.896 71.7671 177.738 71.524 177.619 71.2357C177.506 70.9473 177.449 70.6251 177.449 70.2689C177.449 69.9296 177.506 69.6215 177.619 69.3445C177.738 69.0618 177.896 68.8243 178.094 68.6321C178.298 68.4342 178.535 68.2816 178.806 68.1742C179.078 68.0611 179.366 68.0045 179.671 68.0045C179.982 68.0045 180.273 68.0583 180.545 68.1657C180.816 68.2731 181.051 68.4258 181.249 68.6236C181.447 68.8159 181.602 69.0533 181.715 69.336C181.834 69.6187 181.893 69.9296 181.893 70.2689C181.893 70.6194 181.834 70.9388 181.715 71.2272C181.602 71.5155 181.444 71.7615 181.24 71.965C181.042 72.1629 180.808 72.3183 180.536 72.4314C180.265 72.5388 179.977 72.5926 179.671 72.5926ZM179.671 71.8887C180.078 71.8887 180.415 71.7388 180.681 71.4392C180.946 71.1395 181.079 70.7494 181.079 70.2689C181.079 69.8109 180.946 69.4378 180.681 69.1494C180.415 68.8554 180.078 68.7084 179.671 68.7084C179.264 68.7084 178.928 68.8554 178.662 69.1494C178.396 69.4378 178.264 69.8109 178.264 70.2689C178.264 70.7438 178.396 71.1339 178.662 71.4392C178.928 71.7388 179.264 71.8887 179.671 71.8887ZM183.645 69.9805V72.4993H182.848V68.1063H183.628V68.6915C183.752 68.4823 183.925 68.3155 184.145 68.1911C184.372 68.0667 184.637 68.0045 184.943 68.0045C185.208 68.0045 185.463 68.0667 185.706 68.1911C185.949 68.3155 186.138 68.5162 186.274 68.7932C186.41 68.5501 186.602 68.3579 186.851 68.2166C187.099 68.0752 187.382 68.0045 187.699 68.0045C187.908 68.0045 188.109 68.0356 188.301 68.0978C188.493 68.1544 188.66 68.2505 188.801 68.3862C188.948 68.5219 189.064 68.6971 189.149 68.912C189.234 69.1212 189.276 69.3784 189.276 69.6837V72.4993H188.479V69.794C188.479 69.4265 188.386 69.1523 188.199 68.9713C188.018 68.7904 187.789 68.7 187.512 68.7C187.235 68.7 186.989 68.8102 186.774 69.0307C186.565 69.2512 186.461 69.5678 186.461 69.9805V72.4993H185.663V69.794C185.663 69.4265 185.57 69.1523 185.384 68.9713C185.203 68.7904 184.974 68.7 184.697 68.7C184.42 68.7 184.174 68.8102 183.959 69.0307C183.75 69.2455 183.645 69.5622 183.645 69.9805ZM189.839 73.0929L192.579 66.3932H193.393L190.654 73.0929H189.839ZM194.436 69.9805V72.4993H193.639V68.1063H194.419V68.6915C194.544 68.4823 194.716 68.3155 194.937 68.1911C195.163 68.0667 195.429 68.0045 195.734 68.0045C196 68.0045 196.254 68.0667 196.497 68.1911C196.74 68.3155 196.93 68.5162 197.065 68.7932C197.201 68.5501 197.393 68.3579 197.642 68.2166C197.891 68.0752 198.173 68.0045 198.49 68.0045C198.699 68.0045 198.9 68.0356 199.092 68.0978C199.284 68.1544 199.451 68.2505 199.592 68.3862C199.739 68.5219 199.855 68.6971 199.94 68.912C200.025 69.1212 200.067 69.3784 200.067 69.6837V72.4993H199.27V69.794C199.27 69.4265 199.177 69.1523 198.99 68.9713C198.809 68.7904 198.58 68.7 198.303 68.7C198.026 68.7 197.78 68.8102 197.566 69.0307C197.356 69.2512 197.252 69.5678 197.252 69.9805V72.4993H196.455V69.794C196.455 69.4265 196.361 69.1523 196.175 68.9713C195.994 68.7904 195.765 68.7 195.488 68.7C195.211 68.7 194.965 68.8102 194.75 69.0307C194.541 69.2455 194.436 69.5622 194.436 69.9805ZM203.192 72.5926C202.886 72.5926 202.598 72.5388 202.327 72.4314C202.055 72.3183 201.818 72.1629 201.614 71.965C201.417 71.7671 201.258 71.524 201.139 71.2357C201.026 70.9473 200.97 70.6251 200.97 70.2689C200.97 69.9296 201.026 69.6215 201.139 69.3445C201.258 69.0618 201.417 68.8243 201.614 68.6321C201.818 68.4342 202.055 68.2816 202.327 68.1742C202.598 68.0611 202.886 68.0045 203.192 68.0045C203.503 68.0045 203.794 68.0583 204.065 68.1657C204.337 68.2731 204.571 68.4258 204.769 68.6236C204.967 68.8159 205.123 69.0533 205.236 69.336C205.354 69.6187 205.414 69.9296 205.414 70.2689C205.414 70.6194 205.354 70.9388 205.236 71.2272C205.123 71.5155 204.964 71.7615 204.761 71.965C204.563 72.1629 204.328 72.3183 204.057 72.4314C203.785 72.5388 203.497 72.5926 203.192 72.5926ZM203.192 71.8887C203.599 71.8887 203.935 71.7388 204.201 71.4392C204.467 71.1395 204.6 70.7494 204.6 70.2689C204.6 69.8109 204.467 69.4378 204.201 69.1494C203.935 68.8554 203.599 68.7084 203.192 68.7084C202.785 68.7084 202.448 68.8554 202.183 69.1494C201.917 69.4378 201.784 69.8109 201.784 70.2689C201.784 70.7438 201.917 71.1339 202.183 71.4392C202.448 71.7388 202.785 71.8887 203.192 71.8887ZM209.55 71.8208V72.4993H205.996V71.7615L208.6 68.7848H206.047V68.1063H209.516V68.8441L206.912 71.8208H209.55ZM210.117 70.4215V69.6837H212.898V70.4215H210.117ZM214.81 70.0399V72.4993H214.012V66.3932H214.81V68.5727C214.81 68.5954 214.81 68.618 214.81 68.6406C214.81 68.6576 214.81 68.6745 214.81 68.6915C214.945 68.4823 215.129 68.3155 215.361 68.1911C215.593 68.0667 215.858 68.0045 216.158 68.0045C216.639 68.0045 217.023 68.1544 217.311 68.454C217.6 68.748 217.744 69.1805 217.744 69.7516V72.4993H216.947V69.8448C216.947 69.483 216.853 69.2031 216.667 69.0053C216.48 68.8017 216.232 68.7 215.921 68.7C215.627 68.7 215.367 68.813 215.14 69.0392C214.92 69.2597 214.81 69.5932 214.81 70.0399ZM221.73 72.4993L221.722 71.8378C221.586 72.0639 221.397 72.2477 221.154 72.389C220.91 72.5247 220.614 72.5926 220.263 72.5926C220.065 72.5926 219.87 72.5643 219.678 72.5077C219.486 72.4569 219.316 72.3777 219.169 72.2703C219.022 72.1572 218.903 72.0187 218.813 71.8547C218.722 71.6851 218.677 71.4901 218.677 71.2696C218.677 70.7947 218.869 70.4583 219.254 70.2604C219.638 70.0569 220.133 69.907 220.738 69.8109L221.671 69.6583V69.5735C221.671 69.2455 221.58 69.0109 221.4 68.8696C221.224 68.7226 220.984 68.6491 220.679 68.6491C220.39 68.6491 220.15 68.7197 219.958 68.8611C219.766 69.0024 219.644 69.2031 219.593 69.4632H218.813C218.869 69.0166 219.076 68.6632 219.432 68.4031C219.788 68.1374 220.212 68.0045 220.704 68.0045C220.953 68.0045 221.185 68.0328 221.4 68.0894C221.62 68.1459 221.807 68.2364 221.959 68.3607C222.112 68.4851 222.231 68.6491 222.315 68.8526C222.406 69.0561 222.451 69.3049 222.451 69.5989L222.434 71.5834C222.434 71.6512 222.437 71.7501 222.443 71.8802C222.448 72.0102 222.46 72.2166 222.477 72.4993H221.73ZM219.466 71.2357C219.466 71.4618 219.556 71.6371 219.737 71.7615C219.918 71.8802 220.142 71.9395 220.407 71.9395C220.758 71.9395 221.055 71.8293 221.298 71.6088C221.547 71.3883 221.671 71.0717 221.671 70.659V70.2943C220.896 70.3904 220.334 70.5007 219.983 70.6251C219.638 70.7438 219.466 70.9473 219.466 71.2357ZM227.927 70.2689C227.927 70.642 227.87 70.9728 227.757 71.2611C227.65 71.5494 227.503 71.7926 227.316 71.9904C227.13 72.1883 226.912 72.3381 226.663 72.4399C226.42 72.5417 226.16 72.5926 225.883 72.5926C225.549 72.5926 225.255 72.5162 225.001 72.3636C224.752 72.2109 224.568 72.0215 224.45 71.7954V72.4993H223.652V66.3932H224.45V68.7593C224.568 68.5501 224.749 68.372 224.992 68.225C225.241 68.078 225.544 68.0045 225.9 68.0045C226.177 68.0045 226.437 68.0554 226.68 68.1572C226.929 68.2533 227.144 68.3975 227.325 68.5897C227.511 68.7763 227.658 69.0109 227.766 69.2936C227.873 69.5763 227.927 69.9014 227.927 70.2689ZM225.773 71.9141C226.14 71.9141 226.451 71.7699 226.706 71.4816C226.966 71.1933 227.096 70.789 227.096 70.2689C227.096 69.76 226.966 69.3699 226.706 69.0985C226.451 68.8215 226.14 68.683 225.773 68.683C225.4 68.683 225.083 68.8215 224.823 69.0985C224.563 69.3699 224.433 69.76 224.433 70.2689C224.433 70.7947 224.566 71.2017 224.831 71.4901C225.097 71.7728 225.411 71.9141 225.773 71.9141ZM232.821 71.2441C232.759 71.4703 232.657 71.6682 232.516 71.8378C232.38 72.0074 232.222 72.1487 232.041 72.2618C231.86 72.3749 231.662 72.4569 231.448 72.5077C231.233 72.5643 231.015 72.5926 230.795 72.5926C230.495 72.5926 230.209 72.5388 229.938 72.4314C229.672 72.324 229.44 72.1714 229.243 71.9735C229.045 71.7699 228.886 71.524 228.768 71.2357C228.655 70.9473 228.598 70.6251 228.598 70.2689C228.598 69.9183 228.657 69.6046 228.776 69.3275C228.895 69.0448 229.053 68.8074 229.251 68.6152C229.449 68.4173 229.678 68.2674 229.938 68.1657C230.198 68.0583 230.467 68.0045 230.744 68.0045C231.021 68.0045 231.286 68.0554 231.541 68.1572C231.801 68.2533 232.027 68.4003 232.219 68.5982C232.417 68.7904 232.573 69.0335 232.686 69.3275C232.804 69.6159 232.864 69.9523 232.864 70.3367V70.5318H229.412C229.452 70.9445 229.602 71.2781 229.862 71.5325C230.127 71.7869 230.447 71.9141 230.82 71.9141C231.08 71.9141 231.318 71.8632 231.532 71.7615C231.747 71.654 231.911 71.4816 232.024 71.2441H232.821ZM230.727 68.6745C230.387 68.6745 230.091 68.7848 229.836 69.0053C229.587 69.2201 229.443 69.5141 229.404 69.8872H232.033C232.01 69.5197 231.874 69.2258 231.626 69.0053C231.383 68.7848 231.083 68.6745 230.727 68.6745ZM234.611 70.006V72.4993H233.814V68.1063H234.603V68.8272C234.654 68.7424 234.708 68.6632 234.764 68.5897C234.826 68.5106 234.9 68.4371 234.985 68.3692C235.115 68.2618 235.25 68.1855 235.392 68.1402C235.533 68.095 235.694 68.0724 235.875 68.0724C235.926 68.0724 235.974 68.0752 236.019 68.0809C236.07 68.0865 236.115 68.0922 236.155 68.0978V68.8696C236.053 68.8639 235.974 68.8611 235.917 68.8611C235.861 68.8611 235.807 68.8611 235.756 68.8611C235.638 68.8611 235.51 68.8781 235.375 68.912C235.239 68.9402 235.115 68.9968 235.002 69.0816C234.889 69.1664 234.795 69.2851 234.722 69.4378C234.648 69.5848 234.611 69.7742 234.611 70.006ZM236.445 70.4215V69.6837H239.226V70.4215H236.445ZM243.837 68.1063L242.175 72.4993H241.301L239.639 68.1063H240.479L241.759 71.6088L243.04 68.1063H243.837ZM246.813 66.5628V72.4993H245.982V67.589L244.481 68.5558V67.7162L246.16 66.5628H246.813ZM247.981 70.4215V69.6837H250.763V70.4215H247.981ZM254.667 72.4993L254.659 71.8378C254.523 72.0639 254.334 72.2477 254.09 72.389C253.847 72.5247 253.551 72.5926 253.2 72.5926C253.002 72.5926 252.807 72.5643 252.615 72.5077C252.423 72.4569 252.253 72.3777 252.106 72.2703C251.959 72.1572 251.84 72.0187 251.75 71.8547C251.659 71.6851 251.614 71.4901 251.614 71.2696C251.614 70.7947 251.806 70.4583 252.191 70.2604C252.575 70.0569 253.07 69.907 253.675 69.8109L254.608 69.6583V69.5735C254.608 69.2455 254.517 69.0109 254.336 68.8696C254.161 68.7226 253.921 68.6491 253.616 68.6491C253.327 68.6491 253.087 68.7197 252.895 68.8611C252.702 69.0024 252.581 69.2031 252.53 69.4632H251.75C251.806 69.0166 252.013 68.6632 252.369 68.4031C252.725 68.1374 253.149 68.0045 253.641 68.0045C253.89 68.0045 254.122 68.0328 254.336 68.0894C254.557 68.1459 254.743 68.2364 254.896 68.3607C255.049 68.4851 255.167 68.6491 255.252 68.8526C255.343 69.0561 255.388 69.3049 255.388 69.5989L255.371 71.5834C255.371 71.6512 255.374 71.7501 255.379 71.8802C255.385 72.0102 255.396 72.2166 255.413 72.4993H254.667ZM252.403 71.2357C252.403 71.4618 252.493 71.6371 252.674 71.7615C252.855 71.8802 253.078 71.9395 253.344 71.9395C253.695 71.9395 253.991 71.8293 254.235 71.6088C254.483 71.3883 254.608 71.0717 254.608 70.659V70.2943C253.833 70.3904 253.271 70.5007 252.92 70.6251C252.575 70.7438 252.403 70.9473 252.403 71.2357ZM259.778 72.4993V71.8039C259.654 72.0244 259.464 72.2109 259.21 72.3636C258.961 72.5162 258.673 72.5926 258.345 72.5926C258.068 72.5926 257.805 72.5417 257.556 72.4399C257.307 72.3381 257.09 72.1911 256.903 71.9989C256.722 71.801 256.575 71.5579 256.462 71.2696C256.355 70.9756 256.301 70.642 256.301 70.2689C256.301 69.9127 256.358 69.5932 256.471 69.3106C256.584 69.0279 256.734 68.7904 256.92 68.5982C257.107 68.406 257.324 68.259 257.573 68.1572C257.822 68.0554 258.079 68.0045 258.345 68.0045C258.678 68.0045 258.97 68.0752 259.218 68.2166C259.467 68.3523 259.654 68.5219 259.778 68.7254V66.3932H260.575V72.4993H259.778ZM258.464 71.9141C258.639 71.9141 258.808 71.8774 258.972 71.8039C259.136 71.7304 259.278 71.6258 259.396 71.4901C259.515 71.3487 259.611 71.1763 259.685 70.9728C259.758 70.7636 259.795 70.5289 259.795 70.2689C259.795 69.76 259.662 69.3699 259.396 69.0985C259.136 68.8215 258.825 68.683 258.464 68.683C258.079 68.683 257.76 68.8243 257.505 69.107C257.256 69.3897 257.132 69.777 257.132 70.2689C257.132 70.7777 257.256 71.1791 257.505 71.4731C257.76 71.7671 258.079 71.9141 258.464 71.9141ZM262.629 69.9805V72.4993H261.832V68.1063H262.612V68.6915C262.736 68.4823 262.909 68.3155 263.129 68.1911C263.355 68.0667 263.621 68.0045 263.926 68.0045C264.192 68.0045 264.447 68.0667 264.69 68.1911C264.933 68.3155 265.122 68.5162 265.258 68.7932C265.394 68.5501 265.586 68.3579 265.835 68.2166C266.083 68.0752 266.366 68.0045 266.683 68.0045C266.892 68.0045 267.093 68.0356 267.285 68.0978C267.477 68.1544 267.644 68.2505 267.785 68.3862C267.932 68.5219 268.048 68.6971 268.133 68.912C268.218 69.1212 268.26 69.3784 268.26 69.6837V72.4993H267.463V69.794C267.463 69.4265 267.37 69.1523 267.183 68.9713C267.002 68.7904 266.773 68.7 266.496 68.7C266.219 68.7 265.973 68.8102 265.758 69.0307C265.549 69.2512 265.445 69.5678 265.445 69.9805V72.4993H264.647V69.794C264.647 69.4265 264.554 69.1523 264.367 68.9713C264.187 68.7904 263.958 68.7 263.681 68.7C263.404 68.7 263.158 68.8102 262.943 69.0307C262.734 69.2455 262.629 69.5622 262.629 69.9805ZM269.451 67.3007V66.3932H270.265V67.3007H269.451ZM269.459 72.4993V68.1063H270.257V72.4993H269.459ZM272.302 70.0399V72.4993H271.505V68.1063H272.294V68.7084C272.429 68.4936 272.613 68.324 272.845 68.1996C273.077 68.0696 273.345 68.0045 273.651 68.0045C274.131 68.0045 274.516 68.1544 274.804 68.454C275.092 68.748 275.236 69.1805 275.236 69.7516V72.4993H274.439V69.8448C274.439 69.483 274.346 69.2031 274.159 69.0053C273.973 68.8017 273.724 68.7 273.413 68.7C273.119 68.7 272.859 68.813 272.633 69.0392C272.412 69.2597 272.302 69.5932 272.302 70.0399ZM276.288 70.4215V69.6837H279.07V70.4215H276.288ZM282.415 72.5926C282.075 72.5926 281.781 72.5191 281.533 72.3721C281.29 72.2194 281.106 72.0357 280.981 71.8208V74.1106H280.184V68.1063H280.981V68.7678C281.1 68.5586 281.281 68.3805 281.524 68.2335C281.773 68.0809 282.075 68.0045 282.432 68.0045C282.709 68.0045 282.969 68.0554 283.212 68.1572C283.461 68.2533 283.675 68.3975 283.856 68.5897C284.043 68.7763 284.19 69.0109 284.297 69.2936C284.405 69.5763 284.459 69.9014 284.459 70.2689C284.459 70.642 284.402 70.9756 284.289 71.2696C284.182 71.5579 284.035 71.801 283.848 71.9989C283.661 72.1911 283.444 72.3381 283.195 72.4399C282.952 72.5417 282.692 72.5926 282.415 72.5926ZM282.304 71.9141C282.672 71.9141 282.983 71.7699 283.237 71.4816C283.497 71.1876 283.627 70.7834 283.627 70.2689C283.627 69.76 283.497 69.3699 283.237 69.0985C282.983 68.8215 282.672 68.683 282.304 68.683C281.931 68.683 281.615 68.8215 281.355 69.0985C281.095 69.3756 280.965 69.7657 280.965 70.2689C280.965 70.7947 281.097 71.2017 281.363 71.4901C281.629 71.7728 281.943 71.9141 282.304 71.9141ZM288.217 72.4993L288.208 71.8378C288.073 72.0639 287.883 72.2477 287.64 72.389C287.397 72.5247 287.1 72.5926 286.75 72.5926C286.552 72.5926 286.357 72.5643 286.165 72.5077C285.972 72.4569 285.803 72.3777 285.656 72.2703C285.509 72.1572 285.39 72.0187 285.3 71.8547C285.209 71.6851 285.164 71.4901 285.164 71.2696C285.164 70.7947 285.356 70.4583 285.741 70.2604C286.125 70.0569 286.62 69.907 287.225 69.8109L288.157 69.6583V69.5735C288.157 69.2455 288.067 69.0109 287.886 68.8696C287.711 68.7226 287.471 68.6491 287.165 68.6491C286.877 68.6491 286.637 68.7197 286.444 68.8611C286.252 69.0024 286.131 69.2031 286.08 69.4632H285.3C285.356 69.0166 285.562 68.6632 285.919 68.4031C286.275 68.1374 286.699 68.0045 287.191 68.0045C287.439 68.0045 287.671 68.0328 287.886 68.0894C288.107 68.1459 288.293 68.2364 288.446 68.3607C288.598 68.4851 288.717 68.6491 288.802 68.8526C288.892 69.0561 288.938 69.3049 288.938 69.5989L288.921 71.5834C288.921 71.6512 288.924 71.7501 288.929 71.8802C288.935 72.0102 288.946 72.2166 288.963 72.4993H288.217ZM285.953 71.2357C285.953 71.4618 286.043 71.6371 286.224 71.7615C286.405 71.8802 286.628 71.9395 286.894 71.9395C287.244 71.9395 287.541 71.8293 287.784 71.6088C288.033 71.3883 288.157 71.0717 288.157 70.659V70.2943C287.383 70.3904 286.82 70.5007 286.47 70.6251C286.125 70.7438 285.953 70.9473 285.953 71.2357ZM290.936 70.0399V72.4993H290.139V68.1063H290.928V68.7084C291.063 68.4936 291.247 68.324 291.479 68.1996C291.711 68.0696 291.979 68.0045 292.285 68.0045C292.765 68.0045 293.15 68.1544 293.438 68.454C293.726 68.748 293.871 69.1805 293.871 69.7516V72.4993H293.073V69.8448C293.073 69.483 292.98 69.2031 292.794 69.0053C292.607 68.8017 292.358 68.7 292.047 68.7C291.753 68.7 291.493 68.813 291.267 69.0392C291.047 69.2597 290.936 69.5932 290.936 70.0399ZM298.993 71.2441C298.931 71.4703 298.829 71.6682 298.688 71.8378C298.552 72.0074 298.394 72.1487 298.213 72.2618C298.032 72.3749 297.834 72.4569 297.619 72.5077C297.405 72.5643 297.187 72.5926 296.966 72.5926C296.667 72.5926 296.381 72.5388 296.11 72.4314C295.844 72.324 295.612 72.1714 295.414 71.9735C295.217 71.7699 295.058 71.524 294.94 71.2357C294.826 70.9473 294.77 70.6251 294.77 70.2689C294.77 69.9183 294.829 69.6046 294.948 69.3275C295.067 69.0448 295.225 68.8074 295.423 68.6152C295.621 68.4173 295.85 68.2674 296.11 68.1657C296.37 68.0583 296.639 68.0045 296.916 68.0045C297.193 68.0045 297.458 68.0554 297.713 68.1572C297.973 68.2533 298.199 68.4003 298.391 68.5982C298.589 68.7904 298.745 69.0335 298.858 69.3275C298.976 69.6159 299.036 69.9523 299.036 70.3367V70.5318H295.584C295.624 70.9445 295.773 71.2781 296.034 71.5325C296.299 71.7869 296.619 71.9141 296.992 71.9141C297.252 71.9141 297.489 71.8632 297.704 71.7615C297.919 71.654 298.083 71.4816 298.196 71.2441H298.993ZM296.899 68.6745C296.559 68.6745 296.263 68.7848 296.008 69.0053C295.759 69.2201 295.615 69.5141 295.576 69.8872H298.205C298.182 69.5197 298.046 69.2258 297.798 69.0053C297.554 68.7848 297.255 68.6745 296.899 68.6745ZM299.986 72.4993V66.3932H300.783V72.4993H299.986Z" fill="#3B4767"/>
    <path fill-rule="evenodd" clip-rule="evenodd" d="M862.565 66.3165H864.08C864.749 66.3165 865.291 66.8589 865.291 67.528V69.0424H866.2C866.702 69.0424 867.109 69.4492 867.109 69.9511C867.109 70.4529 866.702 70.8597 866.2 70.8597H865.291V72.3741C865.291 73.0432 864.749 73.5856 864.08 73.5856H862.565V72.677C862.565 72.1751 862.159 71.7683 861.657 71.7683C861.155 71.7683 860.748 72.1751 860.748 72.677V73.5856H859.234C858.565 73.5856 858.022 73.0432 858.022 72.3741V70.8597H858.931C859.433 70.8597 859.839 70.4529 859.839 69.9511C859.839 69.4492 859.433 69.0424 858.931 69.0424H858.022V67.528C858.022 66.8589 858.565 66.3165 859.234 66.3165H860.748V65.7108C860.748 65.2089 861.155 64.8021 861.657 64.8021C862.159 64.8021 862.565 65.2089 862.565 65.7108V66.3165Z" fill="#606367"/>
    <path fill-rule="evenodd" clip-rule="evenodd" d="M885.887 65.1051H877.406V73.5857H885.887V65.1051ZM882.858 66.3166H878.618V72.3742H882.858V66.3166Z" fill="#606367"/>
    <path fill-rule="evenodd" clip-rule="evenodd" d="M901.031 66.3165C901.031 66.8183 900.624 67.2251 900.122 67.2251C899.62 67.2251 899.213 66.8183 899.213 66.3165C899.213 65.8146 899.62 65.4078 900.122 65.4078C900.624 65.4078 901.031 65.8146 901.031 66.3165ZM901.031 69.4967C901.031 69.9985 900.624 70.4053 900.122 70.4053C899.62 70.4053 899.213 69.9985 899.213 69.4967C899.213 68.9949 899.62 68.5881 900.122 68.5881C900.624 68.5881 901.031 68.9949 901.031 69.4967ZM900.122 73.5856C900.624 73.5856 901.031 73.1787 901.031 72.6769C901.031 72.1751 900.624 71.7683 900.122 71.7683C899.62 71.7683 899.213 72.1751 899.213 72.6769C899.213 73.1787 899.62 73.5856 900.122 73.5856Z" fill="#606367"/>
    <rect width="872.29" height="0.605757" transform="translate(40.856 80.249)" fill="#DBDCDD"/>
    <g clip-path="url(#clip4_150_1312)">
    <rect width="872.29" height="436.145" transform="translate(40.856 80.8549)" fill="#F5F5F5"/>
    <rect x="40.856" y="80.8549" width="1028" height="514" fill="#EDF0F4"/>
    </g>
    </g>
    <rect x="41.7045" y="33.8485" width="870.593" height="482.303" rx="5.20904" stroke="white" stroke-width="1.69706"/>
    </g>
    <defs>
    <filter id="filter0_d_150_1312" x="0.126442" y="0.7558" width="953.75" height="565.459" filterUnits="userSpaceOnUse" color-interpolation-filters="sRGB">
    <feFlood flood-opacity="0" result="BackgroundImageFix"/>
    <feColorMatrix in="SourceAlpha" type="matrix" values="0 0 0 0 0 0 0 0 0 0 0 0 0 0 0 0 0 0 127 0" result="hardAlpha"/>
    <feOffset dy="8.48532"/>
    <feGaussianBlur stdDeviation="20.3648"/>
    <feComposite in2="hardAlpha" operator="out"/>
    <feColorMatrix type="matrix" values="0 0 0 0 0 0 0 0 0 0 0 0 0 0 0 0 0 0 0.04 0"/>
    <feBlend mode="normal" in2="BackgroundImageFix" result="effect1_dropShadow_150_1312"/>
    <feBlend mode="normal" in="SourceGraphic" in2="effect1_dropShadow_150_1312" result="shape"/>
    </filter>
    <linearGradient id="paint0_linear_150_1312" x1="264.89" y1="49.9821" x2="233.479" y2="49.9821" gradientUnits="userSpaceOnUse">
    <stop offset="0.593356" stop-color="white"/>
    <stop offset="1" stop-color="white" stop-opacity="0"/>
    </linearGradient>
    <clipPath id="clip0_150_1312">
    <rect x="40.856" y="33" width="872.29" height="484" rx="6.05757" fill="white"/>
    </clipPath>
    <clipPath id="clip1_150_1312">
    <rect width="872.29" height="25.4418" fill="white" transform="translate(40.856 33)"/>
    </clipPath>
    <clipPath id="clip2_150_1312">
    <rect width="152.651" height="20.5957" fill="white" transform="translate(93.5562 37.8462)"/>
    </clipPath>
    <clipPath id="clip3_150_1312">
    <path d="M93.5562 42.6922C93.5562 40.0158 95.7258 37.8462 98.4022 37.8462H234.092C236.768 37.8462 238.938 40.0158 238.938 42.6922V58.4419H93.5562V42.6922Z" fill="white"/>
    </clipPath>
    <clipPath id="clip4_150_1312">
    <rect width="872.29" height="436.145" fill="white" transform="translate(40.856 80.8549)"/>
    </clipPath>
    </defs>
    </svg>
    