<svg width="85" height="30" viewBox="0 0 85 30" fill="#E4032C" xmlns="http://www.w3.org/2000/svg">
    <g style="mix-blend-mode:luminosity">
    <path d="M51.8 20.4C54.7 18.6 56.6 14.9 56.6 11.1C56.5 3.5 50.4 0 44.6 0H30.6C29.9 0 29.3 0.6 29.3 1.3V30H34.2C34.9 30 35.6 29.7 36.1 29.2C36.6 28.7 36.9 28 36.9 27.3V22.2H43.7L49.1 30H57.2L50.8 21L51.8 20.4ZM44.7 15.4H36.8V6.8H44.7C45.9 6.8 47 7.2 47.8 8C48.6 8.8 49.1 9.9 49 11.1C49 12.2 48.6 13.4 47.7 14.2C47 14.9 45.9 15.4 44.7 15.4ZM58 1.3V6.8H67.7V30H72.6C74.1 30 75.2 28.8 75.2 27.4V6.8H82.7C83.9 6.8 84.9 5.8 84.9 4.6V0H59.4C58.6 0 58 0.6 58 1.3ZM0 1.3V6.8H9.7V30H14.6C16.1 30 17.2 28.8 17.3 27.4V6.8H24.8C26 6.8 27 5.8 27 4.6V0H1.3C0.6 0 0 0.6 0 1.3Z" fill="#E4032C"/>
    </g>
</svg>
    